<?xml version="1.0" encoding="utf-8"?>
<!-- Generator: Adobe Illustrator 27.0.0, SVG Export Plug-In . SVG Version: 6.00 Build 0)  -->
<svg version="1.1" id="Layer_1" xmlns="http://www.w3.org/2000/svg" xmlns:xlink="http://www.w3.org/1999/xlink" x="0px" y="0px"
	 viewBox="0 0 72.3 60.2" style="enable-background:new 0 0 72.3 60.2;" xml:space="preserve">
<style type="text/css">
	.st0{fill:#555555;}
</style>
<g>
	<g>
		<g>
			<g>
				<path class="st0" d="M32.9,60.2c-1.4,0-2.9-1.1-2.9-2.9c0-2.5-0.3-4.8-0.8-7.1c-0.7-3.3-2.5-7.8-5.1-10.6
					c-0.9-0.9-2.1-1.5-3.4-1.5c-1.3,0-2.5,0.5-3.4,1.5c-2.7,2.9-4.4,7.4-5.1,10.6c-0.5,2.3-0.8,4.6-0.8,7.1c0,1.8-1.5,2.9-2.9,2.9
					c-1.2,0-2.3-0.7-2.7-1.9C4.4,54.5,3.6,50,3.3,44.7c-0.2-4,0.4-8.4,0.8-12c0.3-2.1,0.5-3.9,0.5-4.9c-0.1-1.9-0.9-3.3-1.8-4.9
					c-0.3-0.5-0.5-0.9-0.8-1.4c-1.5-2.8-1.8-5.1-2-7.8c-0.4-5.9,2.6-10.7,8-12.8C9.5,0.3,10.9,0,12.5,0c2.7,0,5.3,0.7,7.8,1.4
					l0.3,0.1L21,1.4C23.5,0.7,26.2,0,28.8,0c1.6,0,3.1,0.3,4.5,0.8c2.9,1.1,5.2,3.1,6.6,5.6l1,1.8l-2-0.4c-0.7-0.1-1.5-0.2-2.2-0.2
					c-3.5,0-6.8,1.4-9.3,3.9c-5.2,5.2-5.2,13.6,0,18.7c2.5,2.5,5.7,3.8,9.2,3.9l0.9,0l0.1,0.9c0.3,3,0.7,6.4,0.6,9.7
					c-0.2,5.3-1,9.8-2.4,13.6C35.1,59.5,34.1,60.2,32.9,60.2z M20.7,36.2c1.9,0,3.6,0.8,4.9,2.1c2.9,3.1,4.8,8,5.6,11.5
					c0.5,2.4,0.8,4.9,0.8,7.5c0,0.7,0.6,0.9,0.9,0.9c0.2,0,0.6-0.1,0.8-0.6c1.4-3.7,2.1-7.9,2.3-13c0.1-2.8-0.1-5.8-0.4-8.5
					c-3.7-0.2-7.1-1.8-9.8-4.4c-5.9-5.9-5.9-15.6,0-21.5c3-3,7-4.6,11.1-4.5c-1.1-1.3-2.6-2.3-4.4-3C31.4,2.2,30.2,2,28.8,2
					c-2.4,0-4.9,0.7-7.3,1.3l-0.8,0.2l-0.8-0.2C17.4,2.7,14.9,2,12.5,2c-1.4,0-2.6,0.2-3.8,0.7C4.2,4.4,1.7,8.5,2,13.5
					c0.2,2.6,0.4,4.6,1.7,7C4,21,4.3,21.4,4.5,21.9c1,1.7,2,3.5,2.1,5.9c0,1.1-0.2,2.9-0.5,5.2c-0.4,3.5-1,7.8-0.8,11.6
					c0.2,5.1,1,9.4,2.3,13c0.2,0.5,0.6,0.6,0.8,0.6c0.3,0,0.9-0.2,0.9-0.9c0-2.6,0.3-5.1,0.8-7.5c0.8-3.5,2.7-8.4,5.6-11.5
					C17.1,36.9,18.8,36.2,20.7,36.2z"/>
			</g>
		</g>
	</g>
	<g>
		<path class="st0" d="M64,56.6L53.5,46.1l-1.4-5.4l-7.1-7.1c-2.5,1.7-5.4,2.5-8.5,2.5c-4,0-7.8-1.6-10.6-4.5
			c-5.9-5.9-5.9-15.6,0-21.5c3.5-3.5,8.5-5.1,13.3-4.2c3.1,0.5,5.9,2,8.2,4.2c5.1,5.1,5.9,13.2,2,19.1l7.1,7.1l5.4,1.4l10.5,10.5
			L64,56.6z M55.3,45.1l8.7,8.7l5.5-5.5l-8.7-8.7l-5.4-1.4l-8.7-8.7l0.5-0.7c3.9-5.2,3.3-12.6-1.3-17.2c-2-2-4.4-3.2-7.1-3.7
			c-4.2-0.7-8.6,0.6-11.6,3.7c-5.2,5.2-5.2,13.6,0,18.7c2.5,2.5,5.7,3.8,9.2,3.9c2.9,0,5.7-0.9,8-2.6l0.7-0.5l8.7,8.7L55.3,45.1z"/>
		<path class="st0" d="M36.6,32.6c-0.2,0-0.4,0-0.6,0c-2.9-0.2-5.6-1.4-7.6-3.4c-2.2-2.2-3.4-5.1-3.4-8.2c0-3.1,1.2-6.1,3.4-8.3
			c3.2-3.2,8-4.3,12.3-2.7c1.6,0.6,3,1.5,4.2,2.7c4.5,4.6,4.5,12,0,16.5l0,0l0,0C42.7,31.4,39.7,32.6,36.6,32.6z M36.6,11.2
			c-2.5,0-5,1-6.9,2.8c-1.8,1.8-2.8,4.3-2.8,6.9c0,2.6,1,5,2.8,6.8c1.7,1.7,3.9,2.7,6.3,2.8c2.7,0.1,5.4-0.9,7.4-2.8l0,0
			c3.8-3.8,3.8-9.9,0-13.7c-1-1-2.2-1.8-3.5-2.2C38.9,11.4,37.7,11.2,36.6,11.2z"/>
	</g>
	<g>
		<g>
			<path class="st0" d="M36.6,32.6c-0.2,0-0.4,0-0.6,0c-2.9-0.2-5.6-1.4-7.6-3.4c-2.2-2.2-3.4-5.1-3.4-8.2c0-3.1,1.2-6.1,3.4-8.3
				c2.2-2.2,5.1-3.4,8.2-3.4c1.4,0,2.7,0.2,4,0.7c1.6,0.6,3,1.5,4.2,2.7c4.5,4.6,4.5,12,0,16.5C42.7,31.4,39.7,32.6,36.6,32.6z
				 M36.6,11.2c-2.6,0-5,1-6.8,2.8c-1.8,1.8-2.8,4.3-2.8,6.9c0,2.6,1,5,2.8,6.8c1.7,1.7,3.9,2.7,6.3,2.8c0.2,0,0.3,0,0.5,0
				c2.6,0,5-1,6.9-2.8c3.8-3.8,3.8-9.9,0-13.7c-1-1-2.2-1.8-3.5-2.2C38.9,11.4,37.7,11.2,36.6,11.2z"/>
		</g>
	</g>
	<g>
		<g>
			<path class="st0" d="M29.7,22.3c-0.5,0-1-0.4-1-1c-0.3-6.6,4.9-8.6,7.8-8.8c0.6,0,1,0.4,1.1,0.9c0,0.6-0.4,1-0.9,1.1
				c-0.3,0-6.1,0.5-5.9,6.7C30.7,21.8,30.3,22.3,29.7,22.3C29.7,22.3,29.7,22.3,29.7,22.3z"/>
		</g>
	</g>
	<g>
		<g>
			<g>
				<path class="st0" d="M6.3,20.3c-0.4,0-0.7-0.2-0.9-0.5c-1.1-2.1-1.3-3.8-1.5-5.9C3.8,11.7,4.3,9.7,5.3,8
					c0.3-0.5,0.9-0.6,1.4-0.3C7.1,8,7.3,8.6,7,9.1c-0.8,1.3-1.1,2.9-1,4.6c0.1,1.9,0.3,3.3,1.2,5.1c0.3,0.5,0.1,1.1-0.4,1.4
					C6.7,20.2,6.5,20.3,6.3,20.3z"/>
			</g>
		</g>
		<g>
			<g>
				<path class="st0" d="M8,7.4c-0.3,0-0.5-0.1-0.7-0.3c-0.4-0.4-0.4-1,0-1.4c1-0.9,1.5-1.2,2.8-1.6c0.5-0.2,1.1,0.1,1.2,0.7
					c0.2,0.5-0.1,1.1-0.7,1.3c-1.1,0.3-1.3,0.5-2,1.1C8.5,7.3,8.2,7.4,8,7.4z"/>
			</g>
		</g>
	</g>
</g>
</svg>
