<?xml version="1.0" encoding="utf-8"?>
<!-- Generator: Adobe Illustrator 27.0.0, SVG Export Plug-In . SVG Version: 6.00 Build 0)  -->
<svg version="1.1" id="Layer_1" xmlns="http://www.w3.org/2000/svg" xmlns:xlink="http://www.w3.org/1999/xlink" x="0px" y="0px"
	 viewBox="0 0 63.3 63.3" style="enable-background:new 0 0 63.3 63.3;" xml:space="preserve">
<style type="text/css">
	.st0{fill:#555555;}
</style>
<g>
	<g>
		<g>
			<path class="st0" d="M16.1,24.8L16.1,24.8c-1,0-2-0.2-3-0.5c-1.2-0.4-2.2-1.1-3.1-2c0,0,0-0.1-0.1-0.1L9.8,22
				c-2.7-2.7-9-9.6-9.8-16.9C0,4.6,0.1,4.1,0.5,3.7c0.7-0.8,2.1-0.9,2.9,0l3.6,3.6c0.4,0.4,0.6,0.9,0.6,1.4c0,0.5-0.2,1.1-0.6,1.4
				c0.2,0.4,0.6,1.2,1.3,2.1c0.4-0.8,0.9-1.5,1.6-2.2c0.6-0.6,1.4-1.2,2.2-1.6c-0.9-0.7-1.7-1.1-2.1-1.3C9.3,7.8,8,7.8,7.2,7.1
				L3.6,3.4C3,2.8,2.8,2,3.2,1.2c0.3-0.8,1.1-1.3,2-1.2C12.4,0.8,19.4,7.1,22,9.8l0.1,0.1c0,0,0.1,0.1,0.1,0.1
				c0.9,0.9,1.6,1.9,2,3.1c1,2.8,0.6,5.8-1.2,8.2c-0.2,0.3-0.5,0.6-0.8,0.9c-0.3,0.3-0.6,0.6-1,0.8C19.8,24.2,18,24.8,16.1,24.8z
				 M11.1,20.5L11.1,20.5l0.2,0.2c0.7,0.8,1.5,1.3,2.4,1.6c2.1,0.8,4.5,0.4,6.3-0.9c0.3-0.2,0.5-0.4,0.7-0.6
				c0.2-0.2,0.4-0.5,0.6-0.7c1.4-1.8,1.7-4.2,0.9-6.3c-0.3-0.9-0.8-1.7-1.5-2.4l-0.3-0.3C18.1,8.7,11.6,2.7,5,2l3.7,3.6
				c0.7-0.6,1.5-0.7,2.3-0.4c0.7,0.3,2.1,1.1,3.8,2.8L16,9.2l-1.7,0.5c-1.1,0.3-2.1,0.9-2.9,1.7c-0.8,0.8-1.4,1.8-1.7,2.9L9.3,16
				L8,14.7c-1.7-1.7-2.4-3.1-2.8-3.8c-0.3-0.8-0.2-1.6,0.4-2.2L2,5C2.7,11.5,8.5,17.9,11.1,20.5z M15.9,19.3c-0.9,0-1.8-0.4-2.4-1
				c-1.3-1.3-1.3-3.5,0-4.8c1.3-1.3,3.5-1.3,4.8,0c1.3,1.3,1.3,3.5,0,4.8C17.7,19,16.8,19.3,15.9,19.3z M15.9,14.5
				c-0.4,0-0.7,0.1-1,0.4c-0.5,0.6-0.5,1.5,0,2c0.5,0.5,1.5,0.5,2,0c0.5-0.6,0.5-1.5,0-2C16.6,14.6,16.3,14.5,15.9,14.5z"/>
		</g>
	</g>
	<g>
		<g>
			<path class="st0" d="M15.9,19.3c-0.9,0-1.8-0.4-2.4-1c-1.3-1.3-1.3-3.5,0-4.8c1.3-1.3,3.5-1.3,4.8,0c1.3,1.3,1.3,3.5,0,4.8
				C17.7,19,16.8,19.3,15.9,19.3z M15.9,14.5c-0.4,0-0.7,0.1-1,0.4c-0.5,0.6-0.5,1.5,0,2c0.5,0.5,1.5,0.5,2,0c0.5-0.6,0.5-1.5,0-2
				C16.6,14.6,16.3,14.5,15.9,14.5z"/>
		</g>
	</g>
	<g>
		<g>
			<path class="st0" d="M15.9,19.3c-0.9,0-1.8-0.4-2.4-1c-1.3-1.3-1.3-3.5,0-4.8c1.3-1.3,3.5-1.3,4.8,0c1.3,1.3,1.3,3.5,0,4.8
				C17.7,19,16.8,19.3,15.9,19.3z M15.9,14.5c-0.4,0-0.7,0.1-1,0.4c-0.5,0.6-0.5,1.5,0,2c0.5,0.5,1.5,0.5,2,0c0.5-0.6,0.5-1.5,0-2
				C16.6,14.6,16.3,14.5,15.9,14.5z"/>
		</g>
	</g>
	<g>
		<g>
			<g>
				<path class="st0" d="M48.1,63.3l-0.2-0.1c-16.1-5.7-32.2-33.9-35.3-39.5l-1.3-2.4l2.5,0.9c2.1,0.8,4.5,0.4,6.3-0.9l1-0.7
					l0.5,1.1c12.9,28.8,29,37.4,29.2,37.5l0.3,0.2l0.1,0.4c0.4,1,0.1,1.8-0.2,2.2c-0.8,1.2-2.5,1.3-2.9,1.3L48.1,63.3z M15.4,24.7
					c4.3,7.5,19,31.5,33,36.6c0.4,0,1-0.2,1.1-0.4c0,0,0,0,0-0.1c-2.7-1.5-17.1-10.7-29.2-37.1C18.8,24.5,17.1,24.9,15.4,24.7z"/>
			</g>
		</g>
		<g>
			<g>
				<path class="st0" d="M60.9,51.5c-0.3,0-0.7-0.1-1-0.2l-0.4-0.1l-0.2-0.3c-0.1-0.2-8.7-16.3-37.5-29.2l-1.1-0.5l0.8-1
					c1.4-1.8,1.7-4.2,0.9-6.3l-0.9-2.5l2.4,1.3c5.6,3.1,33.8,19.2,39.5,35.3l0.1,0.2l0,0.2C63.3,49.8,62.5,51.5,60.9,51.5z
					 M23.7,20.3c26.4,12.1,35.6,26.5,37.2,29.2c0.2,0,0.4-0.7,0.5-1.1c-5.1-14-29.1-28.6-36.6-32.9C24.9,17.1,24.5,18.8,23.7,20.3z"
					/>
			</g>
		</g>
	</g>
</g>
</svg>
