<?xml version="1.0" encoding="utf-8"?>
<!-- Generator: Adobe Illustrator 27.0.0, SVG Export Plug-In . SVG Version: 6.00 Build 0)  -->
<svg version="1.1" id="Layer_1" xmlns="http://www.w3.org/2000/svg" xmlns:xlink="http://www.w3.org/1999/xlink" x="0px" y="0px"
	 viewBox="0 0 67.7 70.7" style="enable-background:new 0 0 67.7 70.7;" xml:space="preserve">
<style type="text/css">
	.st0{fill:#555555;}
</style>
<g>
	<g>
		<g>
			<path class="st0" d="M33.8,70.7L32,70.1c-1.2-0.4-29.3-9.7-31.7-55.2L0,8.2l6.7,0.4c0.8,0.1,1.7,0.1,2.5,0.1
				c8.2,0,15.9-2.6,20.4-7L31.3,0h5.1l1.7,1.7c4.5,4.4,12.1,7,20.4,7c0.8,0,1.6,0,2.4-0.1l6.7-0.4l-0.4,6.7
				c-2.4,45.5-30.5,54.8-31.7,55.2L33.8,70.7z M2.1,10.3l0.2,4.5c2.3,44.1,29.1,53,30.3,53.4l1.2,0.4l1.2-0.4
				c1.1-0.4,28-9.3,30.3-53.4l0.2-4.5l-4.5,0.3c-0.9,0.1-1.7,0.1-2.6,0.1c-8.7,0-16.9-2.8-21.8-7.6L35.6,2h-3.4L31,3.1
				c-4.9,4.7-13,7.6-21.8,7.6c-0.8,0-1.7,0-2.6-0.1L2.1,10.3z"/>
		</g>
	</g>
	<g>
		<g>
			<path class="st0" d="M33.8,65.4l-0.3-0.1c-0.3-0.1-26-8.6-28.2-50.7l-0.1-1.1l1.1,0.1c1,0.1,1.9,0.1,2.8,0.1
				c9.5,0,18.4-3.1,23.9-8.4L33.4,5h1l0.3,0.3c5.4,5.3,14.4,8.4,23.9,8.4c0.9,0,1.8,0,2.7-0.1l1.1-0.1l-0.1,1.1
				c-2.2,42.1-27.9,50.6-28.2,50.7L33.8,65.4z M7.4,15.6C9.8,52.9,31,62.2,33.8,63.3c2.8-1.1,24.1-10.4,26.4-47.7
				c-0.6,0-1.2,0-1.7,0c-9.7,0-18.8-3.1-24.7-8.4c-5.8,5.3-15,8.4-24.7,8.4C8.6,15.7,8,15.7,7.4,15.6z"/>
		</g>
	</g>
	<g>
		<g>
			<g>
				<path class="st0" d="M40.9,54.8L40.9,54.8c-1.2,0-2.1-0.9-2.1-2.1c0-1.4-0.1-2.7-0.4-4c-0.4-1.8-1.4-4.3-2.9-5.9
					c-0.8-0.9-2.5-0.9-3.3,0c-1.5,1.6-2.4,4.1-2.9,5.9c-0.3,1.3-0.4,2.6-0.4,4c0,1.2-0.9,2.1-2.1,2.1c-0.9,0-1.6-0.5-1.9-1.4
					c-0.8-2.3-1.3-4.9-1.4-8c-0.1-2.3,0.2-4.9,0.5-7c0.1-1.2,0.3-2.2,0.3-2.8c0-1-0.5-1.7-1-2.6c-0.2-0.3-0.3-0.5-0.5-0.8
					c-0.9-1.7-1.1-3.1-1.2-4.7c-0.3-3.6,1.6-6.5,4.9-7.8c0.9-0.3,1.7-0.5,2.7-0.5c1.6,0,3.1,0.4,4.6,0.8l0,0l0,0
					c1.5-0.4,3-0.8,4.6-0.8c1,0,1.9,0.2,2.7,0.5c3.3,1.3,5.2,4.2,4.9,7.8c-0.1,1.6-0.3,3-1.2,4.7c-0.2,0.3-0.3,0.6-0.5,0.8
					c-0.5,0.9-1,1.6-1,2.6c0,0.5,0.1,1.6,0.3,2.8c0.3,2.1,0.6,4.6,0.5,7c-0.1,3.1-0.6,5.7-1.4,8C42.5,54.3,41.7,54.8,40.9,54.8z
					 M33.8,40.1c1.2,0,2.3,0.5,3.1,1.3c1.7,1.9,2.9,4.8,3.3,6.8c0.3,1.4,0.5,2.9,0.5,4.4c0,0,0,0.1,0.1,0.1c0,0,0,0,0,0
					c0,0,0,0,0.1-0.1c0.8-2.1,1.2-4.5,1.3-7.4c0.1-2.2-0.2-4.6-0.5-6.6c-0.2-1.3-0.3-2.4-0.3-3.1c0-1.5,0.7-2.6,1.3-3.6
					c0.1-0.2,0.3-0.5,0.4-0.8c0.7-1.3,0.8-2.4,0.9-3.9c0.2-2.7-1.1-4.8-3.6-5.8c-0.6-0.2-1.3-0.4-2-0.4c-1.3,0-2.8,0.4-4.1,0.8
					l-0.6,0.2l-0.6-0.2c-1.4-0.4-2.8-0.8-4.1-0.8c-0.7,0-1.4,0.1-2,0.4c-2.5,1-3.8,3.1-3.6,5.8c0.1,1.4,0.2,2.6,0.9,3.9
					c0.1,0.3,0.3,0.5,0.4,0.8c0.6,1,1.2,2.1,1.3,3.6c0,0.7-0.1,1.7-0.3,3.1c-0.2,2-0.6,4.5-0.5,6.6c0.1,2.9,0.5,5.3,1.3,7.4
					c0.2,0.1,0.2,0,0.2,0c0-1.5,0.2-3,0.5-4.4c0.5-2.1,1.6-4.9,3.3-6.8C31.5,40.6,32.7,40.1,33.8,40.1z"/>
			</g>
		</g>
	</g>
	<g>
		<g>
			<g>
				<path class="st0" d="M26.6,31.5c-0.4,0-0.7-0.2-0.9-0.5c-0.6-1.1-0.7-2-0.8-3.1c-0.2-2.4,1.1-4.4,3.3-5.2
					c0.5-0.2,1.1,0.1,1.3,0.6c0.2,0.5-0.1,1.1-0.6,1.3c-1.4,0.5-2.1,1.7-2,3.2c0.1,0.9,0.1,1.5,0.5,2.3c0.3,0.5,0.1,1.1-0.4,1.4
					C26.9,31.5,26.8,31.5,26.6,31.5z"/>
			</g>
		</g>
	</g>
</g>
</svg>
