<?xml version="1.0" encoding="utf-8"?>
<!-- Generator: Adobe Illustrator 27.0.0, SVG Export Plug-In . SVG Version: 6.00 Build 0)  -->
<svg version="1.1" id="Layer_1" xmlns="http://www.w3.org/2000/svg" xmlns:xlink="http://www.w3.org/1999/xlink" x="0px" y="0px"
	 viewBox="0 0 70.4 34.6" style="enable-background:new 0 0 70.4 34.6;" xml:space="preserve">
<style type="text/css">
	.st0{fill:#555555;}
</style>
<g>
	<g>
		<g>
			<path class="st0" d="M35.7,20.7l-0.8-1c-1.5-1.9-3.7-2.9-6.1-2.9c-2.2,0-4.2,0.9-5.8,2.5l-0.9,0.9l-0.7-1.1c-1.2-1.9-3-3-5-3
				c-1.4,0-2.8,0.6-3.9,1.7l-1,1l-0.6-1.3c-1-2.1-2.6-3.4-4.4-3.4C5,14.1,4,14.4,3,16c-0.3,0.5-0.8,0.7-1.4,0.7l0,0
				c-0.9,0-1.6-0.7-1.6-1.6V0h70.4v14.3c0,0.9-0.7,1.6-1.6,1.6c-0.4,0-0.8-0.2-1.1-0.5c-0.9-0.8-1.9-1.3-2.9-1.3
				c-1.8,0-3.4,1.2-4.4,3.3l-0.6,1.3l-1-1c-1.1-1.1-2.4-1.7-3.8-1.7c-2,0-3.8,1.1-5,3.1l-0.7,1.1l-0.9-1c-1.5-1.6-3.6-2.5-5.8-2.5
				c-2.4,0-4.6,1.1-6.1,2.9L35.7,20.7z M28.8,14.8c2.6,0,5.1,1,6.9,2.8c1.8-1.8,4.3-2.8,6.9-2.8c2.3,0,4.6,0.8,6.4,2.3
				c1.6-1.9,3.7-3,6-3c1.5,0,3,0.5,4.3,1.4c1.4-2.1,3.4-3.3,5.5-3.3c1.3,0,2.5,0.4,3.6,1.2V2H2v12c1.2-1.3,2.5-1.9,4.5-1.9
				c2.2,0,4.2,1.3,5.6,3.4c1.3-1,2.8-1.5,4.4-1.5c2.3,0,4.4,1.1,5.9,3C24.2,15.6,26.5,14.8,28.8,14.8z"/>
		</g>
	</g>
	<g>
		<g>
			<g>
				<path class="st0" d="M33.8,34.6H23.7c-1.3,0-2.4-1.1-2.4-2.4v-7.9h0.1c0.6-3.5,3.7-6.1,7.3-6.1s6.7,2.6,7.3,6.1h0.1l0,1v6.9
					C36.2,33.6,35.1,34.6,33.8,34.6z M23.3,25.6v6.6c0,0.2,0.2,0.4,0.4,0.4h10.1c0.2,0,0.4-0.2,0.4-0.4l0-6.9
					c-0.1-2.9-2.5-5.2-5.5-5.2c-2.9,0-5.3,2.3-5.5,5.2L23.3,25.6z"/>
			</g>
		</g>
		<g>
			<g>
				<path class="st0" d="M47.6,34.6H37.5c-1.3,0-2.4-1.1-2.4-2.4v-7.9h0.1c0.6-3.5,3.7-6.1,7.3-6.1s6.7,2.6,7.3,6.1H50l0,1v6.9
					C50,33.6,48.9,34.6,47.6,34.6z M37.1,25.6v6.6c0,0.2,0.2,0.4,0.4,0.4h10.1c0.2,0,0.4-0.2,0.4-0.4l0-6.9
					c-0.1-2.9-2.5-5.2-5.5-5.2c-2.9,0-5.3,2.3-5.5,5.2L37.1,25.6z"/>
			</g>
		</g>
		<g>
			<g>
				<path class="st0" d="M58.7,34h-7.6C50,34,49,32.9,49,31.5v-7.9h0.1c0.5-3.5,2.9-6.1,5.8-6.1c2.9,0,5.3,2.6,5.8,6.1h0.1l0,1v6.9
					C60.8,32.9,59.9,34,58.7,34z M51,24.9v6.6c0,0.3,0.1,0.4,0.1,0.5l7.4,0c0-0.1,0.1-0.2,0.1-0.4l0-6.9c-0.1-2.9-1.8-5.2-3.9-5.2
					c-2,0-3.7,2.3-3.9,5.2L51,24.9z"/>
			</g>
		</g>
		<g>
			<g>
				<path class="st0" d="M67.7,32h-6.1c-1.1,0-1.9-1-1.9-2.4v-7.9h0.1c0.4-3.6,2.4-6.1,4.8-6.1c2.7,0,4.8,3.1,4.9,7.1l0,7
					C69.6,31,68.8,32,67.7,32z M61.9,30h5.6c0-0.1,0.1-0.2,0.1-0.4l0-6.9c-0.1-3.1-1.6-5.1-2.9-5.1c-1.3,0-2.8,2.1-2.9,5.2l0,0.3
					v6.6C61.8,29.8,61.9,29.9,61.9,30z"/>
			</g>
		</g>
		<g>
			<g>
				<path class="st0" d="M9.5,32H3.5c-1.1,0-1.9-1-1.9-2.4v-7.9h0.1c0.4-3.6,2.4-6.1,4.8-6.1c2.4,0,4.4,2.6,4.8,6.1h0.1l0,1v6.9
					C11.4,31,10.6,32,9.5,32z M3.7,30h5.6c0-0.1,0.1-0.2,0.1-0.4l0-6.9c-0.1-3.1-1.6-5.2-2.9-5.2c-1.3,0-2.8,2.1-2.9,5.2l0,0.3v6.6
					C3.6,29.8,3.6,29.9,3.7,30z"/>
			</g>
		</g>
		<g>
			<g>
				<path class="st0" d="M20.2,34h-7.6c-1.2,0-2.1-1.1-2.1-2.4v-7.9h0.1c0.5-3.5,2.9-6.1,5.8-6.1s5.3,2.6,5.8,6.1h0.1l0,1v6.9
					C22.3,32.9,21.4,34,20.2,34z M12.6,24.9v6.6c0,0.3,0.1,0.4,0.1,0.4l7.4,0c0-0.1,0.1-0.2,0.1-0.4l0-6.9c-0.1-2.9-1.8-5.2-3.9-5.2
					s-3.7,2.3-3.9,5.2L12.6,24.9z"/>
			</g>
		</g>
	</g>
	<g>
		<g>
			<path class="st0" d="M29.9,30.2h-2.3c-0.9,0-1.6-0.7-1.6-1.6v-2.3c0-0.9,0.7-1.6,1.6-1.6h2.3c0.9,0,1.6,0.7,1.6,1.6v2.3
				C31.5,29.5,30.8,30.2,29.9,30.2z"/>
		</g>
	</g>
	<g>
		<g>
			<path class="st0" d="M43.8,30.3h-2.3c-0.9,0-1.6-0.7-1.6-1.6v-2.3c0-0.9,0.7-1.6,1.6-1.6h2.3c0.9,0,1.6,0.7,1.6,1.6v2.3
				C45.4,29.5,44.6,30.3,43.8,30.3z"/>
		</g>
	</g>
	<g>
		<g>
			<path class="st0" d="M56,28.9H54c-0.7,0-1.3-0.6-1.3-1.3v-1.9c0-0.7,0.6-1.3,1.3-1.3H56c0.7,0,1.3,0.6,1.3,1.3v1.9
				C57.3,28.3,56.7,28.9,56,28.9z"/>
		</g>
	</g>
	<g>
		<g>
			<path class="st0" d="M65.6,26.6H64c-0.6,0-1.1-0.5-1.1-1.1v-1.6c0-0.6,0.5-1.1,1.1-1.1h1.6c0.6,0,1.1,0.5,1.1,1.1v1.6
				C66.7,26.1,66.2,26.6,65.6,26.6z"/>
		</g>
	</g>
	<g>
		<g>
			<path class="st0" d="M7.4,26.6H5.8c-0.6,0-1.1-0.5-1.1-1.1v-1.6c0-0.6,0.5-1.1,1.1-1.1h1.6c0.6,0,1.1,0.5,1.1,1.1v1.6
				C8.5,26.1,8,26.6,7.4,26.6z"/>
		</g>
	</g>
	<g>
		<g>
			<path class="st0" d="M17.4,28.9h-1.9c-0.7,0-1.3-0.6-1.3-1.3v-1.9c0-0.7,0.6-1.3,1.3-1.3h1.9c0.7,0,1.3,0.6,1.3,1.3v1.9
				C18.7,28.3,18.1,28.9,17.4,28.9z"/>
		</g>
	</g>
	<g>
		<g>
			<path class="st0" d="M35.5,27.5c-18.5,0-33.6-3-33.6-6.7v1.1c0,3.7,15,6.7,33.6,6.7c18.5,0,33.6-3,33.6-6.7v-1.1
				C69.1,24.5,54,27.5,35.5,27.5z"/>
		</g>
	</g>
	<g>
		<g>
			<path class="st0" d="M59,14.3l-1-1c-0.7-0.7-1.5-1.2-2.4-1.4c-0.5-0.2-0.8-0.7-0.7-1.2c0.2-0.5,0.7-0.8,1.2-0.7
				c0.8,0.2,1.6,0.6,2.3,1.1c1.3-1.6,4.1-3.8,7.6-2.8c0.5,0.1,0.8,0.7,0.7,1.2c-0.1,0.5-0.7,0.8-1.2,0.7c-3.3-0.9-5.7,2.3-5.9,2.8
				L59,14.3z"/>
		</g>
	</g>
	<g>
		<g>
			<path class="st0" d="M48.9,15.8l-0.9-1c-0.9-1-2-1.7-3.2-2.1c-0.5-0.2-0.8-0.7-0.6-1.3c0.2-0.5,0.7-0.8,1.3-0.6
				c1.2,0.4,2.2,1,3.2,1.8c0.6-0.7,1.3-1.4,2-1.9c0.5-0.3,1.1-0.2,1.4,0.3c0.3,0.5,0.2,1.1-0.3,1.4c-0.8,0.5-1.6,1.3-2.1,2.2
				L48.9,15.8z"/>
		</g>
	</g>
	<g>
		<g>
			<path class="st0" d="M35.7,16.1l-0.8-1c-0.7-0.9-2.6-2.8-4.9-2.6c-0.5,0.1-1-0.3-1.1-0.9c-0.1-0.5,0.4-1,0.9-1.1
				c2.6-0.3,4.6,1.2,5.9,2.5c1.9-1.9,3.8-2.6,5.9-2.2c0.5,0.1,0.9,0.7,0.7,1.2c-0.1,0.5-0.7,0.9-1.2,0.7c-2.1-0.5-3.7,1.1-4.7,2.3
				L35.7,16.1z"/>
		</g>
	</g>
	<g>
		<g>
			<path class="st0" d="M22.7,15.7L22,14.6c-0.7-1-1.5-1.9-2.5-2.4c-0.5-0.3-0.7-0.9-0.4-1.4c0.3-0.5,0.9-0.7,1.4-0.4
				c0.9,0.5,1.8,1.2,2.5,2.1c0.9-0.7,1.9-1.3,3-1.7c0.5-0.2,1.1,0.1,1.3,0.6c0.2,0.5-0.1,1.1-0.6,1.3c-1.2,0.4-2.2,1.1-3.1,2
				L22.7,15.7z"/>
		</g>
	</g>
	<g>
		<g>
			<path class="st0" d="M12.1,14.3L11.5,13c-0.5-1-3-3.7-6.6-2.7c-0.5,0.1-1.1-0.2-1.2-0.7C3.6,9.1,3.9,8.5,4.4,8.4
				c3.7-1,6.8,0.9,8.2,2.7c1.3-1,2.9-1.5,4.4-1.5c0.6,0,1,0.4,1,1s-0.4,1-1,1c-1.4,0-2.8,0.6-3.9,1.7L12.1,14.3z"/>
		</g>
	</g>
</g>
</svg>
