<?xml version="1.0" encoding="utf-8"?>
<!-- Generator: Adobe Illustrator 27.0.0, SVG Export Plug-In . SVG Version: 6.00 Build 0)  -->
<svg version="1.1" id="Layer_1" xmlns="http://www.w3.org/2000/svg" xmlns:xlink="http://www.w3.org/1999/xlink" x="0px" y="0px"
	 viewBox="0 0 42.5 61.8" style="enable-background:new 0 0 42.5 61.8;" xml:space="preserve">
<style type="text/css">
	.st0{fill:#555555;}
</style>
<g>
	<g>
		<g>
			<g>
				<path class="st0" d="M33.8,61.8L33.8,61.8c-1.5,0-3-1.1-3-3c0-2.5-0.3-4.9-0.8-7.2c-0.8-3.3-2.6-8-5.3-10.9
					c-0.9-1-2.2-1.5-3.5-1.5c-1.3,0-2.6,0.5-3.5,1.5c-2.7,3-4.5,7.6-5.3,10.9c-0.5,2.3-0.8,4.7-0.8,7.2c0,1.9-1.5,3-3,3
					c-1.2,0-2.3-0.7-2.7-1.9c-1.5-3.9-2.3-8.5-2.5-14c-0.2-4.1,0.4-8.6,0.9-12.3c0.3-2.2,0.5-4,0.5-5c-0.1-2-0.9-3.4-1.9-5.1
					c-0.3-0.5-0.6-1-0.8-1.5c-1.5-2.8-1.8-5.2-2-8C-0.4,7.9,2.7,3,8.3,0.8C9.7,0.3,11.2,0,12.9,0c2.8,0,5.5,0.7,8.1,1.4l0.3,0.1
					l0.3-0.1C24.1,0.7,26.8,0,29.6,0c1.7,0,3.2,0.3,4.6,0.8C39.8,3,42.9,7.9,42.4,14c-0.2,2.8-0.5,5.2-2,8c-0.3,0.5-0.6,1-0.8,1.5
					c-1,1.7-1.8,3.1-1.9,5.1c0,1,0.2,2.9,0.5,5c0.5,3.6,1,8.2,0.9,12.3c-0.2,5.5-1,10-2.5,14C36.1,61.1,35,61.8,33.8,61.8z
					 M21.2,37.2c1.9,0,3.7,0.8,5,2.1c3,3.2,4.9,8.2,5.8,11.8c0.6,2.4,0.8,5,0.8,7.7c0,0.8,0.6,1,1,1l0,0c0.2,0,0.7-0.1,0.9-0.6
					C36,55.4,36.8,51,37,45.8c0.2-3.9-0.4-8.4-0.8-12c-0.3-2.3-0.5-4.2-0.5-5.3c0.1-2.5,1.1-4.3,2.2-6c0.3-0.5,0.5-0.9,0.8-1.4
					c1.3-2.5,1.6-4.6,1.8-7.2c0.4-5.1-2.2-9.3-7-11.1C32.3,2.2,31,2,29.6,2c-2.5,0-5.1,0.7-7.6,1.4l-0.8,0.2l-0.8-0.2
					C17.9,2.7,15.3,2,12.9,2C11.4,2,10.2,2.2,9,2.7c-4.7,1.8-7.3,6-7,11.1c0.2,2.7,0.4,4.7,1.8,7.2c0.3,0.5,0.5,0.9,0.8,1.4
					c1,1.7,2.1,3.5,2.2,6c0,1.2-0.2,3-0.5,5.3c-0.4,3.6-1,8-0.8,12c0.2,5.2,1,9.6,2.4,13.4c0.2,0.5,0.6,0.6,0.9,0.6c0.3,0,1-0.2,1-1
					c0-2.7,0.3-5.2,0.8-7.7c0.8-3.6,2.8-8.6,5.8-11.8C17.5,37.9,19.3,37.2,21.2,37.2z"/>
			</g>
		</g>
	</g>
	<g>
		<g>
			<path class="st0" d="M30.6,32.4L30.6,32.4c-0.6,0-1.2-0.3-2.3-0.9c-1.8-0.9-4.4-2.3-7-2.3c0,0,0,0,0,0c-2.7,0-5.5,1.3-7.3,2.1
				c-1.3,0.6-1.9,0.9-2.5,0.9c-0.6,0-1-0.3-1.2-0.8c-0.3-0.9-0.4-3.1-0.5-5.6c0-0.7,0-1.4-0.1-1.7c-0.2-2.5,1.7-4.8,5-5.8
				c0.6-0.2,1.3-0.3,2.2-0.3c1.8,0,3.8,0.4,4.5,0.5c0.7-0.1,2.6-0.5,4.5-0.5c0.9,0,1.6,0.1,2.2,0.3c3.2,1,5.2,3.3,5,5.8
				c-0.1,1-0.6,6.2-1,7.5C31.6,32.1,31.1,32.4,30.6,32.4z M21.2,27.2c3.1,0,6.1,1.5,8,2.5c0.3,0.1,0.6,0.3,0.9,0.4
				c0.3-1.4,0.5-4,0.8-6.2c0.2-1.9-1.7-3.2-3.6-3.7C26.9,20,26.3,20,25.7,20c-1.9,0-4.2,0.5-4.2,0.5l-0.2,0l-0.2,0
				c0,0-2.3-0.5-4.2-0.5c-0.7,0-1.2,0.1-1.6,0.2c-1.8,0.6-3.7,1.8-3.6,3.7c0,0.3,0.1,1,0.1,1.8c0,1.2,0.1,3.2,0.3,4.3
				c0.3-0.1,0.7-0.3,1.1-0.5C15,28.6,18.1,27.2,21.2,27.2z"/>
		</g>
	</g>
	<g>
		<g>
			<path class="st0" d="M8.2,60.9C4.9,45.2,10,31.3,10.2,30.7l1.9,0.7c-0.1,0.1-5.1,14-2,29.1L8.2,60.9z"/>
		</g>
	</g>
	<g>
		<g>
			<path class="st0" d="M34.3,60.9l-2-0.4c3.4-17-2.6-29.6-2.7-29.7l1.8-0.9C31.7,30.5,37.9,43.3,34.3,60.9z"/>
		</g>
	</g>
	<g>
		<g>
			<g>
				<path class="st0" d="M40.4,16.4c-0.7,0-1.3-0.3-1.6-0.9c-1.2-1.9-3.1-3.4-5.4-4.3c-1.2-0.5-2.5-0.7-3.9-0.7
					c-2.5,0-5.1,0.7-7.6,1.4l-0.8,0.2L20.4,12c-2.5-0.7-5.1-1.4-7.6-1.4c-1.4,0-2.7,0.2-3.9,0.7c-2.3,0.9-4.1,2.3-5.3,4.1
					c-0.4,0.6-1,0.9-1.7,0.9l0,0c-1,0-1.9-0.8-2-1.8L0,14C-0.4,7.9,2.7,3,8.3,0.8C9.7,0.3,11.2,0,12.9,0c2.8,0,5.5,0.7,8.1,1.4
					l0.3,0.1l0.3-0.1C24.1,0.7,26.8,0,29.6,0c1.7,0,3.2,0.3,4.6,0.8C39.8,3,42.9,7.9,42.4,14l-0.1,0.7
					C42.3,15.6,41.5,16.4,40.4,16.4z M12.9,2C11.4,2,10.2,2.2,9,2.7c-4.7,1.8-7.3,6-7,11.1l0,0.5c1.4-2.2,3.5-3.9,6.2-4.9
					c1.4-0.6,2.9-0.8,4.6-0.8c2.8,0,5.5,0.7,8.1,1.5l0.3,0.1l0.3-0.1c2.6-0.7,5.3-1.5,8.1-1.5c1.7,0,3.2,0.3,4.6,0.8
					c2.6,1,4.8,2.7,6.2,4.9l0-0.4c0.4-5.1-2.2-9.3-7-11.1C32.3,2.2,31,2,29.6,2c-2.5,0-5.1,0.7-7.6,1.4l-0.8,0.2l-0.8-0.2
					C17.9,2.7,15.3,2,12.9,2z"/>
			</g>
		</g>
	</g>
</g>
</svg>
