<?xml version="1.0" encoding="utf-8"?>
<!-- Generator: Adobe Illustrator 27.0.0, SVG Export Plug-In . SVG Version: 6.00 Build 0)  -->
<svg version="1.1" id="Layer_1" xmlns="http://www.w3.org/2000/svg" xmlns:xlink="http://www.w3.org/1999/xlink" x="0px" y="0px"
	 viewBox="0 0 41.4 60.2" style="enable-background:new 0 0 41.4 60.2;" xml:space="preserve">
<style type="text/css">
	.st0{fill:#555555;}
</style>
<g>
	<g>
		<g>
			<path class="st0" d="M32.9,60.2L32.9,60.2c-1.4,0-2.9-1.1-2.9-2.9c0-2.4-0.3-4.8-0.8-7.1c-0.7-3.2-2.5-7.7-5.1-10.6
				c-0.9-0.9-2.1-1.5-3.4-1.5c-1.3,0-2.5,0.5-3.4,1.5c-2.7,2.9-4.4,7.4-5.1,10.6c-0.5,2.2-0.8,4.6-0.8,7.1c0,1.8-1.5,2.9-2.9,2.9
				c-1.2,0-2.2-0.7-2.7-1.9C4.4,54.5,3.6,50,3.3,44.7c-0.2-4,0.4-8.4,0.8-12c0.3-2.1,0.5-3.9,0.5-4.9c-0.1-1.9-0.9-3.3-1.8-4.9
				C2.5,22.4,2.3,22,2,21.5c-1.5-2.8-1.8-5.1-2-7.8c0-0.5,0-1,0-1.5l0-1.2l1.2,0.2c0.9,0.2,1.7,0,2-0.4c0.2-0.2,0.3-0.6,0.2-1
				c-0.2-1.4,0-2.4,0.6-3.1c0.7-0.8,1.7-0.8,2.6-0.8c0.5,0,1,0,1.1-0.2c1.1-1.4,1.5-2.7,1-3.9l-0.4-1l1.1-0.3c1-0.2,2-0.4,3.1-0.4
				c2.7,0,5.3,0.7,7.9,1.4l0.2,0.1L21,1.4C23.5,0.7,26.1,0,28.8,0c1.6,0,3.1,0.3,4.5,0.8c5.5,2.1,8.5,6.9,8,12.8
				c-0.2,2.7-0.5,5.1-2,7.8c-0.3,0.5-0.5,1-0.8,1.4c-1,1.6-1.8,3-1.8,4.9c0,1,0.2,2.8,0.5,4.9c0.4,3.5,1,8,0.8,12
				c-0.2,5.3-1,9.8-2.4,13.6C35.1,59.5,34.1,60.2,32.9,60.2z M20.7,36.2c1.9,0,3.6,0.8,4.9,2.1c2.9,3.2,4.8,8,5.6,11.5
				c0.5,2.4,0.8,4.9,0.8,7.5c0,0.7,0.6,0.9,0.9,0.9l0,0c0.2,0,0.6-0.1,0.8-0.6c1.4-3.6,2.1-7.9,2.3-13c0.1-3.8-0.4-8.2-0.8-11.6
				c-0.3-2.3-0.5-4.1-0.5-5.2c0.1-2.4,1.1-4.2,2.1-5.9c0.3-0.4,0.5-0.9,0.8-1.4c1.3-2.4,1.5-4.5,1.7-7c0.4-5-2.2-9-6.8-10.8
				C31.4,2.2,30.2,2,28.8,2c-2.4,0-4.9,0.7-7.3,1.3l-0.8,0.2l-0.8-0.2C17.5,2.7,15,2,12.6,2c-0.6,0-1.1,0-1.6,0.1
				c0.2,1.3-0.1,2.9-1.6,4.8C8.5,7.8,7.5,7.8,6.7,7.8c-0.4,0-0.9,0-1.1,0.2c0,0.1-0.3,0.4-0.1,1.6c0.1,1.3-0.3,2.1-0.7,2.6
				c-0.6,0.7-1.6,1.1-2.7,1.1c0,0.1,0,0.2,0,0.3c0.2,2.6,0.4,4.6,1.7,7C4,21,4.3,21.4,4.5,21.9c1,1.7,2,3.5,2.1,5.9
				c0,1.1-0.2,2.9-0.5,5.2c-0.4,3.5-1,7.8-0.8,11.6c0.2,5.1,1,9.4,2.3,13c0.2,0.5,0.6,0.6,0.8,0.6c0.3,0,0.9-0.2,0.9-0.9
				c0-2.6,0.3-5.1,0.8-7.5c0.8-3.5,2.7-8.4,5.6-11.5C17.1,36.9,18.8,36.2,20.7,36.2z"/>
		</g>
	</g>
	<g>
		<g>
			<path class="st0" d="M7.7,23c-0.3,0-0.6-0.1-0.8-0.4c-1.7-2.3-2.2-4.4-2.7-6.8C4.1,15.4,4.1,15,4,14.4c-0.1-0.5,0.3-1,0.9-1.1
				c0.6,0,1,0.3,1.1,0.9c0,0.4,0.1,0.8,0.2,1.2c0.5,2.3,0.9,4,2.3,6c0.3,0.4,0.2,1.1-0.2,1.4C8.1,23,7.9,23,7.7,23z"/>
		</g>
	</g>
</g>
</svg>
