<?xml version="1.0" encoding="utf-8"?>
<!-- Generator: Adobe Illustrator 27.0.0, SVG Export Plug-In . SVG Version: 6.00 Build 0)  -->
<svg version="1.1" id="Layer_1" xmlns="http://www.w3.org/2000/svg" xmlns:xlink="http://www.w3.org/1999/xlink" x="0px" y="0px"
	 viewBox="0 0 41.4 60.2" style="enable-background:new 0 0 41.4 60.2;" xml:space="preserve">
<style type="text/css">
	.st0{fill:#555555;}
</style>
<g>
	<g>
		<g>
			<g>
				<path class="st0" d="M32.9,60.2C32.9,60.2,32.9,60.2,32.9,60.2c-1.4,0-2.9-1.1-2.9-2.9c0-2.4-0.3-4.8-0.8-7.1
					c-0.7-3.2-2.5-7.7-5.1-10.6c-0.9-0.9-2.1-1.5-3.4-1.5c-1.3,0-2.5,0.5-3.4,1.5c-2.7,2.9-4.4,7.4-5.1,10.6
					c-0.5,2.2-0.8,4.6-0.8,7.1c0,1.8-1.5,2.9-2.9,2.9c-1.2,0-2.2-0.7-2.7-1.9C4.4,54.5,3.6,50,3.4,44.7c-0.2-4,0.4-8.4,0.8-12
					c0.3-2.1,0.5-3.9,0.5-4.9c-0.1-1.9-0.9-3.3-1.8-4.9C2.6,22.4,2.3,22,2,21.5c-1.5-2.8-1.8-5.1-2-7.8c-0.4-5.9,2.6-10.7,8-12.8
					C9.5,0.3,10.9,0,12.6,0c2.7,0,5.3,0.7,7.9,1.4l0.3,0.1L21,1.4C23.5,0.7,26.2,0,28.8,0c1.6,0,3.1,0.3,4.5,0.8
					c5.5,2.1,8.5,6.9,8,12.8c-0.2,2.7-0.5,5.1-2,7.8c-0.3,0.5-0.5,1-0.8,1.4c-1,1.6-1.8,3-1.8,4.9c0,1,0.2,2.8,0.5,4.9
					c0.4,3.5,1,8,0.8,12c-0.2,5.3-1,9.8-2.4,13.6C35.1,59.5,34.1,60.2,32.9,60.2z M20.7,36.2c1.9,0,3.6,0.8,4.9,2.1
					c2.9,3.2,4.8,8,5.6,11.5c0.5,2.4,0.8,4.9,0.8,7.5c0,0.7,0.6,0.9,0.9,0.9l0,0c0.2,0,0.6-0.1,0.8-0.6c1.4-3.6,2.1-7.9,2.3-13
					c0.1-3.8-0.4-8.2-0.8-11.6c-0.3-2.3-0.5-4.1-0.5-5.2c0.1-2.4,1.1-4.2,2.1-5.9c0.3-0.4,0.5-0.9,0.8-1.4c1.3-2.4,1.5-4.5,1.7-7
					c0.4-5-2.2-9-6.8-10.8C31.4,2.2,30.2,2,28.8,2c-2.4,0-4.9,0.7-7.3,1.3l-0.8,0.2l-0.8-0.2C17.5,2.7,15,2,12.6,2
					c-1.4,0-2.6,0.2-3.8,0.7C4.2,4.4,1.7,8.5,2,13.5c0.2,2.6,0.4,4.6,1.7,7C4,21,4.3,21.4,4.5,21.9c1,1.7,2,3.5,2.1,5.9
					c0,1.1-0.2,2.9-0.5,5.2c-0.4,3.5-1,7.8-0.8,11.6c0.2,5.1,1,9.4,2.3,13c0.2,0.5,0.6,0.6,0.8,0.6c0.3,0,0.9-0.2,0.9-0.9
					c0-2.6,0.3-5.1,0.8-7.5c0.8-3.5,2.7-8.4,5.6-11.5C17.1,36.9,18.8,36.2,20.7,36.2z"/>
			</g>
		</g>
	</g>
	<g>
		<g>
			<g>
				<path class="st0" d="M6.8,20.6c-0.4,0-0.7-0.2-0.9-0.5c-1.1-2.1-1.3-3.8-1.5-5.9C4.3,12,4.8,10,5.8,8.3C6.1,7.9,6.7,7.7,7.1,8
					c0.5,0.3,0.6,0.9,0.3,1.4c-0.8,1.3-1.1,2.9-1,4.6c0.1,1.9,0.3,3.3,1.2,5.1c0.3,0.5,0.1,1.1-0.4,1.4C7.2,20.5,7,20.6,6.8,20.6z"
					/>
			</g>
		</g>
		<g>
			<g>
				<path class="st0" d="M8.5,7.7C8.2,7.7,8,7.6,7.8,7.4C7.4,7,7.4,6.4,7.8,6c1-0.9,1.5-1.2,2.8-1.6c0.5-0.2,1.1,0.1,1.2,0.7
					c0.2,0.5-0.1,1.1-0.7,1.2c-1.1,0.3-1.3,0.5-2,1.1C9,7.7,8.7,7.7,8.5,7.7z"/>
			</g>
		</g>
	</g>
</g>
</svg>
