<?xml version="1.0" encoding="utf-8"?>
<!-- Generator: Adobe Illustrator 27.0.0, SVG Export Plug-In . SVG Version: 6.00 Build 0)  -->
<svg version="1.1" id="Layer_1" xmlns="http://www.w3.org/2000/svg" xmlns:xlink="http://www.w3.org/1999/xlink" x="0px" y="0px"
	 viewBox="0 0 41.4 66.7" style="enable-background:new 0 0 41.4 66.7;" xml:space="preserve">
<style type="text/css">
	.st0{fill:#555555;}
</style>
<g>
	<g>
		<g>
			<path class="st0" d="M36.7,28.5h-32l-0.1-0.9c-0.1-1.8-0.9-3.1-1.8-4.7c-0.3-0.5-0.5-0.9-0.8-1.4c-1.5-2.8-1.8-5.1-2-7.8
				c-0.4-5.9,2.6-10.7,8-12.8C9.5,0.3,10.9,0,12.6,0c2.7,0,5.3,0.7,7.9,1.4l0.3,0.1L21,1.4C23.5,0.7,26.2,0,28.8,0
				c1.6,0,3.1,0.3,4.5,0.8c5.5,2.1,8.5,6.9,8,12.8c-0.2,2.7-0.5,5.1-2,7.8c-0.3,0.5-0.5,0.9-0.8,1.4c-0.9,1.6-1.7,2.9-1.8,4.7
				L36.7,28.5z M6.5,26.5h28.4c0.3-1.8,1.2-3.2,2-4.6c0.3-0.4,0.5-0.9,0.8-1.3c1.3-2.4,1.5-4.5,1.7-7c0.4-5-2.2-9-6.8-10.8
				C31.4,2.2,30.2,2,28.8,2c-2.4,0-4.9,0.7-7.3,1.3l-0.8,0.2l-0.8-0.2C17.5,2.7,15,2,12.6,2c-1.4,0-2.6,0.2-3.8,0.7
				C4.2,4.4,1.7,8.5,2,13.5c0.2,2.6,0.4,4.6,1.7,7C4,21,4.3,21.4,4.5,21.8C5.3,23.2,6.2,24.7,6.5,26.5z"/>
		</g>
	</g>
	<g>
		<g>
			<g>
				<path class="st0" d="M20.7,57.3c-0.8,0-1.5,0-2.1-0.1l0-2c1.5-0.1,2.8-0.1,4.3,0l0,2C22.2,57.2,21.5,57.3,20.7,57.3z"/>
			</g>
		</g>
		<g>
			<g>
				<path class="st0" d="M20.7,66.7c-3.7,0-7-3.8-7.1-6.2l-0.3-1.8l1.6,0.5c1.5,0.5,3.6,0.7,5.9,0.7c2.2,0,4.4-0.3,5.9-0.7l1.6-0.5
					l-0.3,1.8C27.7,62.9,24.4,66.7,20.7,66.7z M16,61.5c0.8,1.4,2.6,3.2,4.7,3.2c2.1,0,4-1.8,4.7-3.2C22.6,62.1,18.8,62,16,61.5z"/>
			</g>
		</g>
		<g>
			<g>
				<path class="st0" d="M20.7,39.6c-1.9,0-3.7-0.1-5.4-0.3c-1.8-0.3-3.4-0.6-4.7-1l-0.2-0.1c-0.1,0-0.2-0.1-0.2-0.1l-0.4-0.1
					c-0.2-0.1-0.5-0.2-0.7-0.3c-0.6-0.3-1.1-0.7-1.5-1.1c-0.1-0.1-0.1-0.2-0.2-0.3c0-0.1-0.1-0.2-0.1-0.2c-0.1-0.1-0.1-0.2-0.1-0.3
					C7,35.5,7,35.3,7,35.2c0-0.1,0-0.2,0-0.4c0-0.1,0-0.3,0-0.4c0-0.1,0-0.2,0.1-0.3c0.2-0.6,0.6-1.1,1.3-1.5l0.3-0.2
					c0.1-0.1,0.2-0.1,0.3-0.2l-0.3-2h23.9l-0.3,2c0.2,0.1,0.5,0.3,0.8,0.5c0.2,0.2,0.3,0.3,0.5,0.4c0.1,0.1,0.2,0.2,0.3,0.4
					c0,0,0.1,0.2,0.2,0.3c0.1,0.2,0.2,0.3,0.2,0.5c0,0.1,0.1,0.2,0.1,0.3c0,0.1,0,0.3,0,0.4c0,0.1,0,0.2,0,0.4c0,0.1,0,0.2-0.1,0.4
					c0,0.1-0.1,0.2-0.1,0.3c0,0.1-0.1,0.2-0.1,0.2c-0.1,0.1-0.1,0.1-0.2,0.2c-0.4,0.4-0.9,0.8-1.5,1.1c-0.1,0.1-0.2,0.1-0.3,0.2
					c-0.3,0.2-0.7,0.3-1.2,0.5c-1.3,0.4-2.9,0.8-4.7,1C24.4,39.4,22.6,39.6,20.7,39.6z M11.4,36.3c1.1,0.4,2.5,0.7,4.2,0.9
					c3.3,0.4,7,0.4,10.3,0c1.7-0.2,3.2-0.6,4.3-1c0.4-0.1,0.7-0.3,1-0.4c0.1,0,0.2-0.1,0.2-0.1c0.5-0.3,0.8-0.5,0.9-0.7l0.1-0.2
					l0-0.1l0-0.1l-0.1-0.1c0,0.1,0.1,0.1,0.1,0.1l-0.1-0.1c0,0-0.1-0.1-0.1-0.1c-0.1-0.1-0.2-0.1-0.2-0.2c-0.2-0.2-0.5-0.3-0.7-0.4
					c-0.1,0-0.2-0.1-0.3-0.1h-1l0.2-1.6H11.1l0.2,1.2l-0.7,0.3c-0.1,0.1-0.3,0.1-0.4,0.2C10,34,9.9,34,9.8,34.1l-0.1,0.1
					c-0.1,0-0.1,0.1-0.2,0.1C9.1,34.6,9,34.8,9,34.8l0,0.1c0,0,0,0,0,0l0.2,0.3c0.1,0.1,0.4,0.3,0.9,0.6c0.2,0.1,0.3,0.2,0.5,0.2
					l0.4,0.2c0.1,0,0.1,0,0.2,0.1L11.4,36.3z"/>
			</g>
		</g>
		<g>
			<g>
				<path class="st0" d="M31.9,34.3c-0.1-0.1-0.3-0.2-0.4-0.3c-0.1,0-0.2-0.1-0.3-0.1l0.9-1.8c0.1,0.1,0.2,0.1,0.4,0.2
					c0.2,0.1,0.4,0.3,0.6,0.4L31.9,34.3z"/>
			</g>
		</g>
		<g>
			<g>
				<path class="st0" d="M20.7,45.6c-3.5,0-6.8-0.4-9.1-1.2c-0.3-0.1-0.7-0.2-1-0.4l-0.3-0.1c-0.4-0.2-0.8-0.4-1.1-0.7
					C9.1,43.1,9,43,8.9,43c-0.4-0.3-0.6-0.7-0.8-1.2c-0.1-0.2-0.1-0.4-0.1-0.6c0-0.2,0-0.3,0.1-0.5l0,0c0-0.2,0.1-0.4,0.2-0.5
					c0.1-0.2,0.2-0.3,0.3-0.4c0.2-0.2,0.5-0.5,0.8-0.7c0.1-0.1,0.2-0.1,0.3-0.2l0.3-0.2c0,0,0.1,0,0.1-0.1l-0.5-2.9l1.6,0.5
					c1.2,0.4,2.6,0.7,4.3,1c3.3,0.4,7,0.4,10.3,0c1.7-0.2,3.2-0.6,4.3-1l1.6-0.5l-0.5,2.9c0,0,0.1,0,0.1,0.1l0.3,0.2
					c0.1,0.1,0.2,0.1,0.3,0.2c0.3,0.2,0.6,0.5,0.8,0.7c0.1,0.1,0.2,0.3,0.3,0.4c0.1,0.1,0.2,0.3,0.2,0.5l0,0.1c0,0,0,0,0,0l0,0
					c0,0.1,0,0.3,0,0.4c0,0.2,0,0.4-0.1,0.6l-0.2,0.4c0,0.1-0.1,0.1-0.1,0.2c-0.2,0.3-0.4,0.6-0.8,0.8c-0.2,0.1-0.3,0.2-0.5,0.3
					l-0.3,0.1c-0.3,0.2-0.6,0.3-0.9,0.4c-0.2,0.1-0.4,0.2-0.7,0.2C27.5,45.2,24.2,45.6,20.7,45.6z M10.1,41.2l0,0.1
					c0,0,0.1,0.1,0.2,0.2l0.2,0.1c0.2,0.1,0.4,0.3,0.7,0.4l0.3,0.1c0.3,0.1,0.5,0.2,0.8,0.3c2.1,0.7,5.2,1.1,8.5,1.1
					c3.3,0,6.4-0.4,8.5-1.1c0.2-0.1,0.4-0.1,0.5-0.2c0.4-0.2,0.7-0.3,0.9-0.4l0.2-0.1c0,0,0.1,0,0.1-0.1c0.2-0.1,0.3-0.2,0.3-0.3
					l0.1-0.2l0,0l0,0c0,0,0-0.1-0.1-0.1c-0.1-0.1-0.3-0.2-0.5-0.4c0,0-0.1,0-0.1-0.1l-0.2-0.1c-0.1,0-0.1-0.1-0.2-0.1l-0.1,0
					c-0.1,0-0.1,0-0.2-0.1l-0.9-0.4l0.2-1.3c-0.9,0.2-2,0.4-3.1,0.6c-3.5,0.5-7.4,0.4-10.9,0c-1.1-0.2-2.2-0.4-3.1-0.6l0.1,0.6v0.7
					l-0.8,0.4c-0.1,0-0.1,0.1-0.2,0.1l-0.1,0c-0.1,0-0.1,0.1-0.2,0.1l-0.2,0.1c-0.1,0-0.1,0.1-0.2,0.1C10.4,40.8,10.3,41,10.1,41.2
					C10.1,41.1,10.1,41.1,10.1,41.2L10.1,41.2z"/>
			</g>
		</g>
		<g>
			<g>
				<path class="st0" d="M10.2,41.1l-1.5-1.3c0.2-0.3,0.5-0.5,0.9-0.8l1.1,1.6C10.4,40.8,10.3,41,10.2,41.1z"/>
			</g>
		</g>
		<g>
			<g>
				<path class="st0" d="M31.2,41.1c-0.1-0.1-0.3-0.2-0.5-0.4l1.1-1.6c0.4,0.2,0.6,0.5,0.9,0.8L31.2,41.1z"/>
			</g>
		</g>
		<g>
			<g>
				<path class="st0" d="M20.7,51.8c-3.1,0-6-0.4-8.1-1c-0.5-0.2-0.9-0.3-1.3-0.5L11,50.1c-0.5-0.2-0.8-0.5-1.1-0.8
					c-0.2-0.2-0.3-0.3-0.4-0.5c-0.1-0.1-0.2-0.3-0.3-0.6c0,0-0.1-0.2-0.1-0.3c0-0.1,0-0.3,0-0.4c0-0.2,0-0.4,0.1-0.5
					c0-0.2,0.1-0.3,0.2-0.5c0-0.1,0.1-0.2,0.3-0.4c0,0,0.1-0.1,0.2-0.2l0.1-0.1c0.2-0.2,0.5-0.4,0.9-0.6c0.1-0.1,0.2-0.1,0.3-0.2
					l-0.5-3.2l1.6,0.5c2.1,0.7,5.2,1.1,8.5,1.1c3.3,0,6.4-0.4,8.5-1.1l1.6-0.5l-0.5,3.2c0.1,0,0.2,0.1,0.3,0.2
					c0.3,0.2,0.6,0.4,0.8,0.6l0.1,0.1c0.1,0.1,0.2,0.2,0.3,0.3c0.1,0.1,0.2,0.2,0.3,0.4c0.1,0.1,0.1,0.3,0.2,0.5
					c0.1,0.2,0.1,0.3,0.1,0.5c0,0.2,0,0.4-0.1,0.6c-0.1,0.2-0.2,0.4-0.3,0.6c-0.1,0.2-0.3,0.4-0.6,0.6c-0.1,0-0.1,0.1-0.1,0.1
					L31,49.7c-0.2,0.1-0.4,0.3-0.7,0.4l-0.2,0.1c-0.1,0.1-0.2,0.1-0.3,0.1l-0.2,0.1c-0.3,0.1-0.5,0.2-0.8,0.3
					C26.7,51.4,23.8,51.8,20.7,51.8z M11.1,47.7c0.1,0.1,0.1,0.2,0.2,0.2c0.1,0.1,0.4,0.3,0.7,0.4l0.3,0.1c0.3,0.1,0.6,0.3,1,0.4
					c1.9,0.6,4.6,0.9,7.5,0.9c2.9,0,5.6-0.3,7.5-0.9c0.2-0.1,0.4-0.1,0.6-0.2l0.2-0.1c0.1,0,0.2-0.1,0.2-0.1l0.2-0.1
					c0.2-0.1,0.3-0.2,0.4-0.2l0.2-0.2c0.1-0.1,0.1-0.1,0.2-0.1l0.1-0.1l0-0.1L30,47.4c-0.1-0.1-0.2-0.2-0.5-0.3
					c-0.2-0.1-0.6-0.3-0.8-0.4L28,46.5l0.3-1.6c-2.1,0.5-4.8,0.8-7.6,0.8c-2.8,0-5.4-0.3-7.6-0.8l0.3,1.7l-0.8,0.3
					c-0.3,0.1-0.6,0.2-0.8,0.3c-0.2,0.1-0.4,0.2-0.5,0.4L11.1,47.7z"/>
			</g>
		</g>
		<g>
			<g>
				<path class="st0" d="M11.3,47.4L10,45.9c0.3-0.2,0.6-0.4,0.9-0.6l0.9,1.8C11.6,47.2,11.4,47.3,11.3,47.4
					C11.3,47.4,11.3,47.4,11.3,47.4z"/>
			</g>
		</g>
		<g>
			<g>
				<path class="st0" d="M30.1,47.4C30.1,47.4,30.1,47.4,30.1,47.4c-0.1-0.1-0.3-0.2-0.5-0.3l0.9-1.8c0.3,0.2,0.6,0.4,0.9,0.6
					L30.1,47.4z"/>
			</g>
		</g>
		<g>
			<g>
				<path class="st0" d="M22.7,57.2L22.7,57.2c-1.4-0.1-2.7-0.1-4,0l-0.1,0l-0.1,0c-1.9-0.1-3.7-0.4-5.1-0.8l-0.2-0.1
					c-0.1,0-0.3-0.1-0.4-0.2c-0.4-0.2-0.8-0.3-1.1-0.5c-0.8-0.5-1.4-1-1.5-1.7c0-0.1-0.1-0.3-0.1-0.5c0-0.5,0.2-0.9,0.5-1.3
					c0,0,0-0.1,0.1-0.1c0-0.1,0.1-0.2,0.3-0.3c0.1-0.1,0.2-0.2,0.3-0.2c0.1-0.1,0.3-0.2,0.5-0.3c0,0,0.1-0.1,0.2-0.1l-0.4-2.9
					l1.5,0.5c1.9,0.6,4.6,0.9,7.5,0.9c2.9,0,5.6-0.3,7.5-0.9l1.5-0.5l-0.5,2.9c0.1,0,0.1,0.1,0.2,0.1c0.2,0.1,0.3,0.2,0.4,0.3
					c0.1,0,0.2,0.1,0.3,0.2c0.4,0.3,0.6,0.6,0.8,0.9c0,0,0,0.1,0.1,0.1l0,0.1l0.1,0.2c0,0.1,0.1,0.3,0.1,0.5c0,0.1,0,0.2,0,0.3
					c-0.1,0.5-0.5,1.2-1.6,1.8c-0.3,0.1-0.6,0.3-1,0.5c-0.2,0.1-0.4,0.2-0.7,0.2C26.5,56.8,24.8,57.1,22.7,57.2L22.7,57.2z
					 M20.7,55.1c0.7,0,1.4,0,2.1,0.1c1.8-0.1,3.4-0.4,4.5-0.8c0.2-0.1,0.4-0.1,0.5-0.2c0.3-0.1,0.6-0.2,0.8-0.4
					c0.3-0.2,0.5-0.3,0.5-0.4c0,0-0.1-0.1-0.2-0.2c0,0-0.1-0.1-0.2-0.1c-0.1-0.1-0.2-0.1-0.3-0.2c-0.1-0.1-0.2-0.1-0.3-0.2l-0.1,0
					c-0.1,0-0.2-0.1-0.3-0.1L27,52.5l0.2-1.4c-1.9,0.4-4.2,0.6-6.6,0.6c-2.4,0-4.7-0.2-6.6-0.6l0.2,1.4l-0.8,0.3
					c-0.1,0-0.2,0.1-0.3,0.1C13.1,53,13,53,12.9,53.1c-0.2,0.1-0.3,0.1-0.3,0.2l-0.3,0.3c0,0,0.2,0.2,0.5,0.4
					c0.2,0.1,0.5,0.3,0.8,0.4c0.1,0,0.2,0.1,0.3,0.1l0.2,0.1c1.2,0.4,2.8,0.6,4.5,0.7C19.3,55.1,20,55.1,20.7,55.1z"/>
			</g>
		</g>
		<g>
			<g>
				<path class="st0" d="M12.9,56.1c-0.4-0.2-0.8-0.3-1.1-0.5l1-1.7c0.2,0.1,0.5,0.3,0.8,0.4L12.9,56.1z"/>
			</g>
		</g>
		<g>
			<g>
				<path class="st0" d="M20.7,57.3c-0.8,0-1.5,0-2.1-0.1l0-2c1.5-0.1,2.8-0.1,4.3,0l0,2C22.2,57.2,21.5,57.3,20.7,57.3z"/>
			</g>
		</g>
		<g>
			<g>
				<path class="st0" d="M28.5,56.1l-0.7-1.9c0.3-0.1,0.6-0.2,0.8-0.4l1,1.7C29.3,55.8,28.9,56,28.5,56.1z"/>
			</g>
		</g>
		<g>
			<g>
				<path class="st0" d="M20.7,61.9c-2.4,0-4.8-0.3-6.5-0.8l-0.7-0.3c-0.9-0.4-1.6-0.8-1.9-1.4l-0.1-0.2c-0.1-0.2-0.1-0.4-0.1-0.7
					c0-0.2,0-0.3,0.1-0.5c0.1-0.4,0.4-0.8,0.7-1.1c0.1-0.1,0.2-0.1,0.3-0.2c0.1-0.1,0.2-0.2,0.4-0.2c0,0,0,0,0,0L12.5,54l1.5,0.5
					c1.2,0.4,2.8,0.6,4.6,0.7c0.6,0,1.3,0.1,2,0.1s1.4,0,2-0.1c1.8-0.1,3.4-0.4,4.6-0.8l1.5-0.5l-0.4,2.5c0,0,0,0,0,0
					c0.1,0.1,0.2,0.1,0.4,0.2c0.1,0.1,0.3,0.2,0.4,0.3c0.3,0.3,0.6,0.6,0.7,1c0.1,0.2,0.1,0.3,0.1,0.5c0,0.4-0.1,0.7-0.4,1.1
					c-0.1,0.1-0.2,0.3-0.4,0.4c-0.3,0.3-0.8,0.6-1.4,0.8v0l-0.7,0.2C25.5,61.6,23.1,61.9,20.7,61.9z M15,59.2
					c1.5,0.4,3.5,0.7,5.7,0.7c2.2,0,4.2-0.3,5.7-0.7l0.1,0c0.1,0,0.1,0,0.2-0.1L27,59c0.5-0.2,0.8-0.4,0.9-0.5
					c-0.1-0.1-0.1-0.1-0.2-0.1c-0.1,0-0.1-0.1-0.2-0.1l-0.1-0.1c0,0-0.1,0-0.1-0.1c-0.1-0.1-0.3-0.1-0.4-0.2l-0.8-0.3l0.2-1
					c-1.1,0.2-2.3,0.4-3.6,0.5c-0.6,0-1.3,0.1-2.1,0.1s-1.5,0-2.1-0.1c-1.3-0.1-2.5-0.2-3.5-0.5l0.2,1L14.4,58
					c-0.1,0-0.2,0.1-0.4,0.1c-0.1,0-0.1,0.1-0.1,0.1l-0.1,0.1c0,0-0.1,0.1-0.1,0.1c-0.1,0.1-0.1,0.1-0.2,0.1c0,0,0,0,0,0
					c0.1,0.1,0.4,0.3,0.9,0.5l0.2,0.1c0.1,0,0.2,0.1,0.3,0.1L15,59.2z"/>
			</g>
		</g>
		<g>
			<g>
				<path class="st0" d="M15.5,61.6L13.9,61l0.3-0.8l-0.7,0h0.7l0.4-1c0.1,0,0.2,0.1,0.2,0.1l0.6,0.2V61.6z"/>
			</g>
		</g>
		<g>
			<g>
				<path class="st0" d="M20.7,57.3c-0.8,0-1.5,0-2.1-0.1l0-2c1.5-0.1,2.8-0.1,4.3,0l0,2C22.2,57.2,21.5,57.3,20.7,57.3z"/>
			</g>
		</g>
		<g>
			<g>
				<path class="st0" d="M25.9,61.6v-2.1l0.6-0.2c0.1,0,0.1,0,0.2-0.1l0,0l0.1,0l0.4,1h0.7l-0.7,0l0.3,0.9L25.9,61.6z"/>
			</g>
		</g>
	</g>
	<g>
		<g>
			<g>
				<path class="st0" d="M6,20.5c-0.4,0-0.7-0.2-0.9-0.5c-1.1-2.1-1.3-3.8-1.5-5.9C3.5,12,3.9,9.9,4.9,8.3c0.3-0.5,0.9-0.6,1.4-0.3
					c0.5,0.3,0.6,0.9,0.3,1.4c-0.8,1.3-1.1,2.9-1,4.6c0.1,1.9,0.3,3.3,1.2,5.1c0.3,0.5,0.1,1.1-0.4,1.4C6.3,20.5,6.2,20.5,6,20.5z"
					/>
			</g>
		</g>
		<g>
			<g>
				<path class="st0" d="M7.7,7.7c-0.3,0-0.5-0.1-0.7-0.3C6.6,7,6.6,6.4,7,6c1-0.9,1.5-1.2,2.8-1.6C10.3,4.2,10.9,4.5,11,5
					c0.2,0.5-0.1,1.1-0.7,1.3C9.3,6.6,9,6.7,8.3,7.4C8.2,7.6,7.9,7.7,7.7,7.7z"/>
			</g>
		</g>
	</g>
</g>
</svg>
