<?xml version="1.0" encoding="utf-8"?>
<!-- Generator: Adobe Illustrator 27.0.0, SVG Export Plug-In . SVG Version: 6.00 Build 0)  -->
<svg version="1.1" id="Layer_1" xmlns="http://www.w3.org/2000/svg" xmlns:xlink="http://www.w3.org/1999/xlink" x="0px" y="0px"
	 viewBox="0 0 63.2 62.6" style="enable-background:new 0 0 63.2 62.6;" xml:space="preserve">
<style type="text/css">
	.st0{fill:#555555;}
</style>
<g>
	<g>
		<g>
			<path class="st0" d="M21.5,19.2l1.6,1.6c1-0.7,2-1.1,2.8-1.1c0.5,0,0.9,0.1,1.3,0.5l21.6,21.6l1.4-1.4c0.2-0.2,0.4-0.2,0.6-0.2
				s0.4,0.1,0.6,0.2c0.3,0.3,0.3,0.8,0,1.2l-9.3,9.3c-0.2,0.2-0.4,0.2-0.6,0.2s-0.4-0.1-0.6-0.2c-0.3-0.3-0.3-0.8,0-1.2l1.4-1.4
				L20.7,26.7c-0.8-0.8-0.5-2.6,0.7-4.2l-1.6-1.6L21.5,19.2L21.5,19.2z M21.5,16.3l-1.4,1.4l-1.7,1.7l-1.4,1.4l1.4,1.4l0.5,0.5
				c-1,2-0.9,4,0.4,5.3l20.2,20.2c-1.1,1.1-1,2.9,0,3.9c0.5,0.5,1.2,0.8,2,0.8c0.8,0,1.5-0.3,2-0.8l9.3-9.3c1.1-1.1,1.1-2.9,0-4
				c-0.5-0.5-1.2-0.8-2-0.8c-0.7,0-1.4,0.3-1.9,0.8L28.6,18.7c-0.7-0.7-1.6-1-2.7-1c-0.8,0-1.7,0.2-2.5,0.6l-0.6-0.6L21.5,16.3
				L21.5,16.3z"/>
		</g>
	</g>
	<g>
		<g>
			<path class="st0" d="M49.3,46.6l7.5,7.5l-2.2,2.2l-7.5-7.5L49.3,46.6L49.3,46.6z M49.3,43.8l-1.4,1.4l-2.2,2.2l-1.4,1.4l1.4,1.4
				l7.5,7.5l1.4,1.4l1.4-1.4l2.2-2.2l1.4-1.4l-1.4-1.4l-7.5-7.5L49.3,43.8L49.3,43.8z"/>
		</g>
	</g>
	<g>
		<g>
			<path class="st0" d="M60.5,53.5c0.2,0,0.3,0.1,0.5,0.2c0.3,0.3,0.3,0.7,0,0.9l-5.8,5.8c-0.1,0.1-0.3,0.2-0.5,0.2
				s-0.3-0.1-0.5-0.2c-0.3-0.3-0.3-0.7,0-0.9l5.8-5.8C60.2,53.5,60.3,53.5,60.5,53.5L60.5,53.5z M60.5,51.5c-0.7,0-1.4,0.3-1.9,0.8
				l-5.8,5.8c-1,1-1,2.7,0,3.8c0.5,0.5,1.2,0.8,1.9,0.8c0.7,0,1.4-0.3,1.9-0.8l5.8-5.8c1-1,1-2.7,0-3.8
				C61.9,51.7,61.2,51.5,60.5,51.5L60.5,51.5z"/>
		</g>
	</g>
	<g>
		<g>
			<path class="st0" d="M16.2,13.9c0.4,0,0.8,0.2,1.1,0.5l2.5,2.5c0.1-0.1,0.2-0.1,0.4-0.1c0.1,0,0.3,0.1,0.4,0.2
				c0.2,0.2,0.2,0.6,0,0.8L18.3,20c-0.1,0.1-0.3,0.2-0.4,0.2c-0.2,0-0.3-0.1-0.4-0.2c-0.2-0.2-0.2-0.6,0-0.8l0,0L15,16.7
				c-0.6-0.6-0.6-1.7,0-2.3l0,0C15.3,14.1,15.8,13.9,16.2,13.9L16.2,13.9z M16.2,11.9c-1,0-1.9,0.4-2.6,1.1c-1.4,1.4-1.4,3.7,0,5.1
				l1.7,1.7c0,0.6,0.3,1.2,0.8,1.6c0.5,0.5,1.1,0.8,1.8,0.8c0.7,0,1.3-0.3,1.8-0.8l2.3-2.3c0.5-0.5,0.8-1.1,0.8-1.8
				c0-0.7-0.3-1.3-0.8-1.8c-0.4-0.4-0.9-0.7-1.5-0.7L18.7,13C18,12.3,17.1,11.9,16.2,11.9L16.2,11.9z"/>
		</g>
	</g>
	<g>
		<g>
			<path class="st0" d="M2.7,1.2C2,1.1,1.1,0.7,0.3,0L0,0.3l14.1,14.1l0.9-0.9L2.7,1.2z"/>
		</g>
	</g>
	<g>
		<g>
			
				<rect x="39.6" y="43.3" transform="matrix(0.7071 -0.7071 0.7071 0.7071 -18.1898 44.6619)" class="st0" width="10.5" height="2"/>
		</g>
	</g>
	<g>
		<g>
			<rect x="15.9" y="16.5" transform="matrix(0.7071 -0.7071 0.7071 0.7071 -7.0772 17.945)" class="st0" width="4.5" height="2"/>
		</g>
	</g>
	<g>
		<g>
			<path class="st0" d="M26.9,27.3c-0.3,0-0.5-0.1-0.7-0.3c-0.4-0.4-0.4-1,0-1.4l3.3-3.3c0.4-0.4,1-0.4,1.4,0c0.4,0.4,0.4,1,0,1.4
				L27.6,27C27.4,27.2,27.1,27.3,26.9,27.3z"/>
		</g>
	</g>
	<g>
		<g>
			<path class="st0" d="M31.2,31.6c-0.3,0-0.5-0.1-0.7-0.3c-0.4-0.4-0.4-1,0-1.4l3.3-3.3c0.4-0.4,1-0.4,1.4,0c0.4,0.4,0.4,1,0,1.4
				l-3.3,3.3C31.7,31.6,31.4,31.6,31.2,31.6z"/>
		</g>
	</g>
	<g>
		<g>
			<path class="st0" d="M35.5,36c-0.3,0-0.5-0.1-0.7-0.3c-0.4-0.4-0.4-1,0-1.4l3.3-3.3c0.4-0.4,1-0.4,1.4,0c0.4,0.4,0.4,1,0,1.4
				l-3.3,3.3C36,35.9,35.7,36,35.5,36z"/>
		</g>
	</g>
	<g>
		<g>
			<path class="st0" d="M39.8,40.3c-0.3,0-0.5-0.1-0.7-0.3c-0.4-0.4-0.4-1,0-1.4l3.3-3.3c0.4-0.4,1-0.4,1.4,0c0.4,0.4,0.4,1,0,1.4
				L40.5,40C40.3,40.2,40.1,40.3,39.8,40.3z"/>
		</g>
	</g>
</g>
</svg>
