<?xml version="1.0" encoding="utf-8"?>
<!-- Generator: Adobe Illustrator 27.0.0, SVG Export Plug-In . SVG Version: 6.00 Build 0)  -->
<svg version="1.1" id="Layer_1" xmlns="http://www.w3.org/2000/svg" xmlns:xlink="http://www.w3.org/1999/xlink" x="0px" y="0px"
	 viewBox="0 0 67.2 69.8" style="enable-background:new 0 0 67.2 69.8;" xml:space="preserve">
<style type="text/css">
	.st0{fill:#555555;}
</style>
<g>
	<g>
		<g>
			<g>
				<path class="st0" d="M8.5,2c0,0-2.3,14.8-1.8,16.5l12.7,2.7l5.6,5.6l3.9,1l3.7,3.7l29.7,28.6c1.2,1.1,1.2,3,0,4.2l-2,2
					c-0.6,0.6-1.3,0.9-2.1,0.9c-0.8,0-1.5-0.3-2.1-0.9L25.7,34.6l-1.8-1.8l-1-3.9l-5.6-5.6c0,0-9.8-1.2-11.9-3.1S8.5,2,8.5,2L8.5,2z
					 M8.5,0C7.7,0,6.9,0.6,6.6,1.4C1.1,18.9,3.3,21,4.1,21.6c2.1,2,9.3,3.2,12.3,3.6l4.7,4.7l0.9,3.3c0.1,0.3,0.3,0.7,0.5,0.9
					l1.8,1.8l30.4,31.7c0.9,1,2.2,1.5,3.5,1.5c1.3,0,2.5-0.5,3.5-1.4l2-2c0.9-0.9,1.5-2.2,1.4-3.5c0-1.3-0.5-2.6-1.5-3.5L34,30.1
					l-3.7-3.7c-0.2-0.2-0.6-0.4-0.9-0.5L26.1,25l-5.2-5.2c-0.3-0.3-0.6-0.5-1-0.5L8.6,16.9c0.2-2.7,1-9.1,1.9-14.6
					c0.2-1-0.5-2-1.5-2.3C8.8,0,8.7,0,8.5,0L8.5,0z"/>
			</g>
		</g>
		<g>
			<g>
				
					<rect x="15.8" y="21.4" transform="matrix(0.7071 -0.7071 0.7071 0.7071 -10.4219 19.6001)" class="st0" width="5.3" height="2"/>
			</g>
		</g>
		<g>
			<g>
				
					<rect x="21.2" y="26.8" transform="matrix(0.7071 -0.7071 0.7071 0.7071 -12.6508 24.9814)" class="st0" width="5.3" height="2"/>
			</g>
		</g>
		<g>
			<g>
				<rect x="21.7" y="29.4" transform="matrix(0.7071 -0.7071 0.7071 0.7071 -13.7943 27.4727)" class="st0" width="9" height="2"/>
			</g>
		</g>
	</g>
	<g>
		<g>
			<g>
				<path class="st0" d="M23.9,41l4.8,5L8.6,67c-0.5,0.6-1.2,0.8-2,0.8c-0.7,0-1.4-0.3-1.9-0.8l-1.9-1.9c-1.1-1.1-1.1-2.8,0-3.9
					L23.9,41L23.9,41z M23.9,38.2l-1.4,1.4l-21,20.2C0.5,60.7,0,61.9,0,63.2c0,1.3,0.5,2.5,1.4,3.4l1.9,1.9c0.9,0.9,2.1,1.4,3.3,1.4
					c1.3,0,2.5-0.5,3.4-1.4l20.1-20.9l1.3-1.4l-1.3-1.4l-4.8-5L23.9,38.2L23.9,38.2z"/>
			</g>
		</g>
		<g>
			<g>
				<path class="st0" d="M55.9,4.7c2.4,0,4.8,0.9,6.6,2.7c3.6,3.6,3.6,9.5,0,13.2c-1.8,1.8-4.2,2.7-6.6,2.7c-2,0-3.9-0.6-5.5-1.8
					l-5.2,5.2l-0.9,3.5l-2.3,2.4L37.2,28l2.5-2.4l3.5-0.9l5.2-5.2c-2.7-3.6-2.4-8.8,0.9-12.1C51.1,5.6,53.5,4.7,55.9,4.7L55.9,4.7z
					 M55.9,2.7c-3,0-5.9,1.2-8,3.3c-3.5,3.5-4.3,8.9-2,13.2l-3.7,3.7l-3,0.8l-0.5,0.1l-0.4,0.4l-2.5,2.4L34.4,28l1.5,1.4l4.7,4.5
					l1.4,1.4l1.4-1.4l2.3-2.4l0.4-0.4l0.1-0.5l0.8-3l3.7-3.7c1.6,0.8,3.4,1.3,5.3,1.3c3,0,5.9-1.2,8-3.3c2.1-2.1,3.3-5,3.3-8
					S66,8.1,63.9,6C61.7,3.8,58.9,2.7,55.9,2.7L55.9,2.7z"/>
			</g>
		</g>
		<g>
			<g>
				<path class="st0" d="M55.9,8.4c1.4,0,2.8,0.5,3.9,1.6c2.1,2.1,2.1,5.6,0,7.8c-1.1,1.1-2.5,1.6-3.9,1.6c-1.4,0-2.8-0.5-3.9-1.6
					c-2.1-2.1-2.1-5.6,0-7.8C53,9,54.5,8.4,55.9,8.4L55.9,8.4z M55.9,6.4L55.9,6.4c-2,0-3.9,0.8-5.3,2.2c-2.9,2.9-2.9,7.7,0,10.6
					c1.4,1.4,3.3,2.2,5.3,2.2c2,0,3.9-0.8,5.3-2.2c2.9-2.9,2.9-7.7,0-10.6C59.8,7.2,57.9,6.4,55.9,6.4L55.9,6.4z"/>
			</g>
		</g>
		<g>
			<g>
				
					<rect x="43.3" y="23.1" transform="matrix(0.7071 -0.7071 0.7071 0.7071 -5.1269 38.7811)" class="st0" width="2" height="4.9"/>
			</g>
		</g>
		<g>
			<g>
				
					<rect x="40.9" y="23.7" transform="matrix(0.7071 -0.7071 0.7071 0.7071 -7.4145 37.7457)" class="st0" width="2" height="8.2"/>
			</g>
		</g>
	</g>
</g>
</svg>
