<?xml version="1.0" encoding="utf-8"?>
<!-- Generator: Adobe Illustrator 27.0.0, SVG Export Plug-In . SVG Version: 6.00 Build 0)  -->
<svg version="1.1" id="Layer_1" xmlns="http://www.w3.org/2000/svg" xmlns:xlink="http://www.w3.org/1999/xlink" x="0px" y="0px"
	 viewBox="0 0 64.6 51" style="enable-background:new 0 0 64.6 51;" xml:space="preserve">
<style type="text/css">
	.st0{fill:#555555;}
</style>
<g>
	<g>
		<g>
			<path class="st0" d="M57.7,51H6.9C3.1,51,0,47.9,0,44.1V6.9C0,3.1,3.1,0,6.9,0h50.7c3.8,0,6.9,3.1,6.9,6.9v37.1
				C64.6,47.9,61.5,51,57.7,51z M6.9,2C4.2,2,2,4.2,2,6.9v37.1C2,46.8,4.2,49,6.9,49h50.7c2.7,0,4.9-2.2,4.9-4.9V6.9
				c0-2.7-2.2-4.9-4.9-4.9H6.9z"/>
		</g>
	</g>
	<g>
		<g>
			<path class="st0" d="M19.8,10.4H7c-1.3,0-2.4-1.1-2.4-2.4S5.7,5.7,7,5.7h12.8c1.3,0,2.4,1.1,2.4,2.4S21.1,10.4,19.8,10.4z M7,7.7
				c-0.2,0-0.4,0.2-0.4,0.4c0,0.2,0.2,0.4,0.4,0.4h12.8c0.2,0,0.4-0.2,0.4-0.4c0-0.2-0.2-0.4-0.4-0.4H7z"/>
		</g>
	</g>
	<g>
		<g>
			<path class="st0" d="M13.7,17.3H7.5c-1.4,0-2.6-1.2-2.6-2.6c0-1.4,1.2-2.6,2.6-2.6h6.2c1.4,0,2.6,1.2,2.6,2.6
				C16.2,16.1,15.1,17.3,13.7,17.3z M7.5,14.1c-0.3,0-0.6,0.3-0.6,0.6s0.3,0.6,0.6,0.6h6.2c0.3,0,0.6-0.3,0.6-0.6s-0.3-0.6-0.6-0.6
				H7.5z"/>
		</g>
	</g>
	<g>
		<g>
			<g>
				<path class="st0" d="M48.8,43.9L48.8,43.9c-1.2,0-2.1-0.9-2.1-2.1c0-1.4-0.1-2.7-0.4-4c-0.4-1.8-1.4-4.3-2.9-5.9
					c-0.8-0.9-2.4-0.9-3.3,0c-1.5,1.6-2.4,4.1-2.9,5.9c-0.3,1.3-0.4,2.6-0.4,4c0,1.2-0.9,2.1-2.1,2.1c-0.9,0-1.6-0.5-1.9-1.4
					c-0.8-2.3-1.3-4.9-1.4-8c-0.1-2.3,0.2-4.9,0.5-7c0.1-1.2,0.3-2.2,0.3-2.8c0-1-0.5-1.7-1-2.6c-0.2-0.3-0.3-0.5-0.5-0.8
					c-0.9-1.7-1.1-3.1-1.2-4.7c-0.3-3.6,1.6-6.5,4.9-7.8C35.2,8.6,36,8.4,37,8.4c1.6,0,3.1,0.4,4.6,0.8l0,0l0,0
					c1.5-0.4,3-0.8,4.6-0.8c1,0,1.9,0.2,2.7,0.5c3.3,1.3,5.2,4.2,4.9,7.8c-0.1,1.6-0.3,3-1.2,4.7c-0.2,0.3-0.3,0.6-0.5,0.8
					c-0.5,0.9-1,1.6-1,2.6c0,0.5,0.1,1.6,0.3,2.8c0.3,2.1,0.6,4.6,0.5,7c-0.1,3.1-0.6,5.7-1.4,8C50.4,43.4,49.6,43.9,48.8,43.9z
					 M41.7,29.2c1.2,0,2.3,0.5,3.1,1.3c1.7,1.9,2.9,4.8,3.3,6.8c0.3,1.4,0.5,2.9,0.5,4.4c0,0,0,0.1,0.1,0.1c0,0,0,0,0.1-0.1
					c0.8-2.1,1.2-4.5,1.3-7.4c0.1-2.2-0.2-4.6-0.5-6.6c-0.2-1.3-0.3-2.4-0.3-3.1c0-1.5,0.7-2.6,1.3-3.6c0.1-0.2,0.3-0.5,0.4-0.8
					c0.7-1.3,0.8-2.4,0.9-3.9c0.2-2.7-1.1-4.8-3.6-5.8c-0.6-0.2-1.3-0.4-2-0.4c-1.3,0-2.7,0.4-4.1,0.8l-0.6,0.2l-0.6-0.2
					c-1.4-0.4-2.8-0.8-4.1-0.8c-0.7,0-1.4,0.1-2,0.4c-2.5,1-3.8,3.1-3.6,5.8c0.1,1.4,0.2,2.6,0.9,3.9c0.1,0.3,0.3,0.5,0.4,0.8
					c0.6,1,1.2,2.1,1.3,3.6c0,0.7-0.1,1.7-0.3,3.1c-0.2,2-0.6,4.5-0.5,6.6c0.1,2.9,0.5,5.3,1.3,7.4c0.2,0.1,0.2,0,0.2,0
					c0-1.5,0.2-3,0.5-4.4c0.5-2.1,1.6-5,3.3-6.8C39.4,29.7,40.5,29.2,41.7,29.2z"/>
			</g>
		</g>
	</g>
	<g>
		<g>
			<g>
				<path class="st0" d="M31.5,45.5h-2.7v-2.7c0-0.3-0.2-0.5-0.5-0.5c-0.3,0-0.5,0.2-0.5,0.5v3.2c0,0.3,0.2,0.5,0.5,0.5h3.2
					c0.3,0,0.5-0.2,0.5-0.5C32,45.7,31.8,45.5,31.5,45.5z"/>
			</g>
		</g>
		<g>
			<g>
				<path class="st0" d="M28.8,9.2V6.5h2.7C31.8,6.5,32,6.3,32,6s-0.2-0.5-0.5-0.5h-3.2c-0.3,0-0.5,0.2-0.5,0.5v3.2
					c0,0.3,0.2,0.5,0.5,0.5C28.6,9.7,28.8,9.5,28.8,9.2z"/>
			</g>
		</g>
		<g>
			<g>
				<path class="st0" d="M52,45.5h2.7v-2.7c0-0.3,0.2-0.5,0.5-0.5c0.3,0,0.5,0.2,0.5,0.5v3.2c0,0.3-0.2,0.5-0.5,0.5H52
					c-0.3,0-0.5-0.2-0.5-0.5C51.5,45.7,51.7,45.5,52,45.5z"/>
			</g>
		</g>
		<g>
			<g>
				<path class="st0" d="M54.7,9.2V6.5H52c-0.3,0-0.5-0.2-0.5-0.5s0.2-0.5,0.5-0.5h3.2c0.3,0,0.5,0.2,0.5,0.5v3.2
					c0,0.3-0.2,0.5-0.5,0.5C54.9,9.7,54.7,9.5,54.7,9.2z"/>
			</g>
		</g>
	</g>
</g>
</svg>
