<?xml version="1.0" encoding="utf-8"?>
<!-- Generator: Adobe Illustrator 27.0.0, SVG Export Plug-In . SVG Version: 6.00 Build 0)  -->
<svg version="1.1" id="Layer_1" xmlns="http://www.w3.org/2000/svg" xmlns:xlink="http://www.w3.org/1999/xlink" x="0px" y="0px"
	 viewBox="0 0 41.4 60.2" style="enable-background:new 0 0 41.4 60.2;" xml:space="preserve">
<style type="text/css">
	.st0{fill:#555555;}
</style>
<g>
	<g>
		<g>
			<g>
				<path class="st0" d="M32.9,60.2L32.9,60.2c-1.4,0-2.9-1.1-2.9-2.9c0-2.4-0.3-4.8-0.8-7.1c-0.7-3.2-2.5-7.7-5.1-10.6
					c-0.9-0.9-2.1-1.5-3.4-1.5s-2.5,0.5-3.4,1.5c-2.7,2.9-4.4,7.4-5.1,10.6c-0.5,2.2-0.8,4.6-0.8,7.1c0,1.8-1.5,2.9-2.9,2.9
					c-1.2,0-2.2-0.7-2.7-1.9C4.4,54.5,3.6,50,3.4,44.7c-0.2-4,0.4-8.4,0.8-12c0.3-2.1,0.5-3.9,0.5-4.9c-0.1-1.9-0.9-3.3-1.8-4.9
					C2.6,22.4,2.3,22,2,21.5c-1.5-2.8-1.8-5.1-2-7.8c-0.4-5.9,2.6-10.7,8-12.8C9.5,0.3,10.9,0,12.6,0c2.7,0,5.3,0.7,7.9,1.4l0.3,0.1
					L21,1.4C23.5,0.7,26.2,0,28.8,0c1.6,0,3.1,0.3,4.5,0.8c5.5,2.1,8.5,6.9,8,12.8c-0.2,2.7-0.5,5.1-2,7.8c-0.3,0.5-0.5,1-0.8,1.4
					c-1,1.6-1.8,3-1.8,4.9c0,1,0.2,2.8,0.5,4.9c0.4,3.5,1,8,0.8,12c-0.2,5.3-1,9.8-2.4,13.6C35.1,59.5,34.1,60.2,32.9,60.2z
					 M20.7,36.2c1.9,0,3.6,0.8,4.9,2.1c2.9,3.2,4.8,8,5.6,11.5c0.5,2.4,0.8,4.9,0.8,7.5c0,0.7,0.6,0.9,0.9,0.9l0,0
					c0.2,0,0.6-0.1,0.8-0.6c1.4-3.6,2.1-7.9,2.3-13c0.1-3.8-0.4-8.2-0.8-11.6c-0.3-2.3-0.5-4.1-0.5-5.2c0.1-2.4,1.1-4.2,2.1-5.9
					c0.3-0.4,0.5-0.9,0.8-1.4c1.3-2.4,1.5-4.5,1.7-7c0.4-5-2.2-9-6.8-10.8C31.4,2.2,30.2,2,28.8,2c-2.4,0-4.9,0.7-7.3,1.3l-0.8,0.2
					l-0.8-0.2C17.5,2.7,15,2,12.6,2c-1.4,0-2.6,0.2-3.8,0.7C4.2,4.4,1.7,8.5,2,13.5c0.2,2.6,0.4,4.6,1.7,7C4,21,4.3,21.4,4.5,21.9
					c1,1.7,2,3.5,2.1,5.9c0,1.1-0.2,2.9-0.5,5.2c-0.4,3.5-1,7.8-0.8,11.6c0.2,5.1,1,9.4,2.3,13c0.2,0.5,0.6,0.6,0.8,0.6
					c0.3,0,0.9-0.2,0.9-0.9c0-2.6,0.3-5.1,0.8-7.5c0.8-3.5,2.7-8.4,5.6-11.5C17.1,36.9,18.8,36.2,20.7,36.2z"/>
			</g>
		</g>
	</g>
	<g>
		<g>
			<path class="st0" d="M12.3,4.5c0,6.7-7.6,6.7-7.6,6.7s7.5,0,7.6,6.7c0-6.7,7.6-6.7,7.6-6.7S12.3,11.2,12.3,4.5z"/>
		</g>
	</g>
	<g>
		<g>
			<path class="st0" d="M19.9,15.7c0,3.4-3.8,3.4-3.8,3.4s3.8,0,3.8,3.4c0-3.4,3.8-3.4,3.8-3.4S19.9,19.1,19.9,15.7z"/>
		</g>
	</g>
	<g>
		<g>
			<path class="st0" d="M12.3,20.5c0,3.4-3.8,3.4-3.8,3.4s3.8,0,3.8,3.4c0-3.4,3.8-3.4,3.8-3.4S12.3,23.9,12.3,20.5z"/>
		</g>
	</g>
</g>
</svg>
