<?xml version="1.0" encoding="utf-8"?>
<!-- Generator: Adobe Illustrator 27.0.0, SVG Export Plug-In . SVG Version: 6.00 Build 0)  -->
<svg version="1.1" id="Layer_1" xmlns="http://www.w3.org/2000/svg" xmlns:xlink="http://www.w3.org/1999/xlink" x="0px" y="0px"
	 viewBox="0 0 41.4 59.2" style="enable-background:new 0 0 41.4 59.2;" xml:space="preserve">
<style type="text/css">
	.st0{fill:#555555;}
</style>
<g>
	<g>
		<g>
			<g>
				<path class="st0" d="M39.9,20.5H26.2l-1.4-6.3h-8.1l-1.4,6.3H1.5l-0.3-0.6c-0.9-2.2-1.1-4.2-1.2-6.3c-0.4-5.9,2.6-10.7,8-12.8
					C9.5,0.3,10.9,0,12.6,0c2.7,0,5.3,0.7,7.9,1.4l0.3,0.1L21,1.4C23.5,0.7,26.2,0,28.8,0c1.6,0,3.1,0.3,4.5,0.8
					c5.5,2.1,8.5,6.9,8,12.8c-0.2,2.1-0.4,4.1-1.2,6.3L39.9,20.5z M27.8,18.5h10.7c0.5-1.5,0.7-3,0.9-5.1c0.4-5-2.2-9-6.8-10.8
					C31.4,2.2,30.2,2,28.8,2c-2.4,0-4.9,0.7-7.3,1.3l-0.8,0.2l-0.8-0.2C17.5,2.7,15,2,12.6,2c-1.4,0-2.6,0.2-3.8,0.7
					C4.2,4.4,1.7,8.5,2,13.5c0.1,2.1,0.3,3.5,0.9,5.1h10.7l1.4-6.3h11.3L27.8,18.5z"/>
			</g>
		</g>
		<g>
			<g>
				<path class="st0" d="M22,18l1,4.7l0.3,1.6H25h9.4c-0.4,1-0.7,2.1-0.7,3.4c0,1.2,0.2,3,0.5,5.4c0.4,3.4,1,7.7,0.8,11.5
					c-0.2,4.7-0.9,8.7-2.1,12.1c0-2.5-0.3-4.8-0.8-7.1c-0.8-3.6-2.8-8.7-5.9-12c-1.4-1.5-3.5-2.4-5.6-2.4c-2.1,0-4.2,0.9-5.6,2.4
					c-3.1,3.3-5,8.4-5.9,12c-0.5,2.3-0.8,4.7-0.8,7.1c-1.2-3.4-1.9-7.4-2-12.1c-0.1-3.8,0.4-8,0.8-11.5c0.3-2.3,0.5-4.2,0.5-5.4
					c0-1.3-0.3-2.4-0.7-3.4h9.3h1.6l0.3-1.6l1-4.7H22L22,18z M23.6,16h-6l-1.4,6.3H3.6c1,1.7,2,3.3,2,5.5c0.1,2.7-1.5,10.5-1.3,16.9
					c0.2,4.2,0.7,8.9,2.4,13.3c0.3,0.9,1,1.2,1.8,1.2c1,0,1.9-0.7,1.9-1.9c0-2.5,0.3-4.9,0.8-7.3c0.8-3.4,2.6-8,5.4-11.1
					c1.1-1.2,2.6-1.8,4.1-1.8c1.5,0,3,0.6,4.1,1.8c2.8,3,4.6,7.7,5.4,11.1c0.5,2.4,0.8,4.8,0.8,7.3c0,1.2,1,1.9,1.9,1.9
					c0.7,0,1.4-0.4,1.8-1.2c1.6-4.4,2.2-9.1,2.4-13.3c0.2-6.4-1.4-14.1-1.3-16.9c0.1-2.2,1-3.8,2-5.5H25L23.6,16L23.6,16z"/>
			</g>
		</g>
	</g>
	<g>
		<g>
			<g>
				<path class="st0" d="M5.5,20c-0.4,0-0.7-0.2-0.9-0.5c-1.1-2.1-1.3-3.8-1.5-5.9C3,11.5,3.4,9.5,4.4,7.8c0.3-0.5,0.9-0.6,1.4-0.3
					c0.5,0.3,0.6,0.9,0.3,1.4c-0.8,1.3-1.1,2.9-1,4.6c0.1,1.9,0.3,3.3,1.2,5.1C6.6,19,6.4,19.6,6,19.9C5.8,20,5.6,20,5.5,20z"/>
			</g>
		</g>
		<g>
			<g>
				<path class="st0" d="M7.1,7.2c-0.3,0-0.5-0.1-0.7-0.3c-0.4-0.4-0.4-1,0-1.4c1-0.9,1.5-1.2,2.8-1.6c0.5-0.2,1.1,0.1,1.2,0.7
					c0.2,0.5-0.1,1.1-0.7,1.2c-1.1,0.3-1.3,0.5-2,1.1C7.7,7.1,7.4,7.2,7.1,7.2z"/>
			</g>
		</g>
	</g>
</g>
</svg>
