<?xml version="1.0" encoding="utf-8"?>
<!-- Generator: Adobe Illustrator 27.0.0, SVG Export Plug-In . SVG Version: 6.00 Build 0)  -->
<svg version="1.1" id="Layer_1" xmlns="http://www.w3.org/2000/svg" xmlns:xlink="http://www.w3.org/1999/xlink" x="0px" y="0px"
	 viewBox="0 0 70.5 49" style="enable-background:new 0 0 70.5 49;" xml:space="preserve">
<style type="text/css">
	.st0{fill:#555555;}
</style>
<g>
	<g>
		<g>
			<path class="st0" d="M42.3,49H7.9c-3.4,0-6.1-2.4-6.1-5.3s2.7-5.3,6.1-5.3h33.5c1.3-2.1,6.9-8.2,28.1-7.7l1,0v9.6l-1,0
				c0,0-0.7,0-1.8,0c-8.3,0-17.7,1.2-19.5,4.8l-0.1,0.2C47.8,45.6,45.1,49,42.3,49z M7.9,40.4c-2.3,0-4.1,1.5-4.1,3.3
				c0,1.8,1.8,3.3,4.1,3.3h34.4c1.5,0,3.5-2.1,4.1-2.9c2.6-5,14.4-5.8,21.2-5.8c0.3,0,0.6,0,0.8,0v-5.6c-22.3-0.4-25.5,7-25.5,7
				l-0.2,0.6l-0.7,0H7.9z"/>
		</g>
	</g>
	<g>
		<g>
			<polygon class="st0" points="8.1,39.4 6.1,39.4 6.1,21.2 11.4,21.2 11.4,38.6 9.4,38.6 9.4,23.2 8.1,23.2 			"/>
		</g>
	</g>
	<g>
		<g>
			<polygon class="st0" points="14.7,38.6 12.7,38.6 12.7,23.2 11.4,23.2 11.4,38.6 9.4,38.6 9.4,21.2 14.7,21.2 			"/>
		</g>
	</g>
	<g>
		<g>
			<polygon class="st0" points="18,38.6 16,38.6 16,23.2 14.7,23.2 14.7,38.6 12.7,38.6 12.7,21.2 18,21.2 			"/>
		</g>
	</g>
	<g>
		<g>
			<polygon class="st0" points="21.3,38.6 19.3,38.6 19.3,23.2 18,23.2 18,38.6 16,38.6 16,21.2 21.3,21.2 			"/>
		</g>
	</g>
	<g>
		<g>
			<polygon class="st0" points="24.5,38.6 22.5,38.6 22.5,23.2 21.3,23.2 21.3,38.6 19.3,38.6 19.3,21.2 24.5,21.2 			"/>
		</g>
	</g>
	<g>
		<g>
			<polygon class="st0" points="27.8,38.6 25.8,38.6 25.8,23.2 24.5,23.2 24.5,38.6 22.5,38.6 22.5,21.2 27.8,21.2 			"/>
		</g>
	</g>
	<g>
		<g>
			<polygon class="st0" points="31.1,38.6 29.1,38.6 29.1,23.2 27.8,23.2 27.8,38.6 25.8,38.6 25.8,21.2 31.1,21.2 			"/>
		</g>
	</g>
	<g>
		<g>
			<path class="st0" d="M45.7,23.1l-1.4-0.8c-5.9-3.4-20.5-4-28.6-4c-3.3,0-5.4,0.1-5.5,0.1h0c-3.8,0-7.1-2.7-8.6-6.8
				C-0.2,7.1,0,1.9,0,1.7L0.1,0l1.4,0.8c5.9,3.4,20.5,4,28.6,4c3.2,0,5.4-0.1,5.5-0.1c0,0,0,0,0,0c3.8,0,7.1,2.7,8.6,6.8
				c1.7,4.6,1.5,9.8,1.5,10L45.7,23.1z M15.6,16.3c7.8,0,21.2,0.5,28.1,3.5c-0.1-1.8-0.4-4.9-1.4-7.6c-1.2-3.3-3.9-5.5-6.7-5.5
				c0,0-2.2,0.1-5.5,0.1C22.4,6.8,9,6.3,2,3.3C2.1,5.2,2.4,8.2,3.4,11c1.2,3.3,3.9,5.5,6.7,5.5C10.1,16.4,12.3,16.3,15.6,16.3z"/>
		</g>
	</g>
	<g>
		<g>
			<polygon class="st0" points="34.4,38.6 32.4,38.6 32.4,23.2 31.1,23.2 31.1,38.6 29.1,38.6 29.1,21.2 34.4,21.2 			"/>
		</g>
	</g>
	<g>
		<g>
			<polygon class="st0" points="37.7,38.6 35.7,38.6 35.7,23.2 34.4,23.2 34.4,38.6 32.4,38.6 32.4,21.2 37.7,21.2 			"/>
		</g>
	</g>
	<g>
		<g>
			<polygon class="st0" points="41,38.6 39,38.6 39,23.2 37.7,23.2 37.7,38.6 35.7,38.6 35.7,21.2 41,21.2 			"/>
		</g>
	</g>
	<g>
		<g>
			<path class="st0" d="M10.4,14.9c-0.1,0-0.2,0-0.2,0c-4.8-1.2-5.9-7.7-5.9-8C4.1,6.3,4.5,5.8,5.1,5.7C5.6,5.7,6.1,6,6.2,6.6
				c0,0.1,0.9,5.5,4.4,6.4c0.5,0.1,0.9,0.7,0.7,1.2C11.2,14.6,10.8,14.9,10.4,14.9z"/>
		</g>
	</g>
</g>
</svg>
