<?xml version="1.0" encoding="utf-8"?>
<!-- Generator: Adobe Illustrator 27.0.0, SVG Export Plug-In . SVG Version: 6.00 Build 0)  -->
<svg version="1.1" id="Layer_1" xmlns="http://www.w3.org/2000/svg" xmlns:xlink="http://www.w3.org/1999/xlink" x="0px" y="0px"
	 viewBox="0 0 84.7 28.4" style="enable-background:new 0 0 84.7 28.4;" xml:space="preserve">
<style type="text/css">
	.st0{fill:#555555;}
</style>
<g>
	<g>
		<g>
			<path class="st0" d="M42.3,11c-0.2,0-18.6,0-36.4-4L0,5.6L6,5c10.4-1.1,27.6-3.3,29.5-4.5L36.4,0l0.5,0.8c0,0.1,1.4,2,5.4,2.3
				c4-0.2,5.4-2.2,5.4-2.3L48.3,0l0.8,0.5C51,1.7,68.2,3.9,78.6,5l6,0.6L78.8,7C61,10.9,42.5,11,42.3,11z M12.6,6.2
				C28,8.9,42.2,9,42.3,9c0.2,0,14.3,0,29.7-2.7c-7.6-0.9-19.5-2.5-23.2-3.7C48,3.4,46,4.9,42.4,5.1l-0.1,0l-0.1,0
				c-3.7-0.2-5.6-1.7-6.5-2.5C32.1,3.8,20.2,5.3,12.6,6.2z"/>
		</g>
	</g>
	<g>
		<g>
			<path class="st0" d="M42.3,28.4l-0.3,0l-0.3,0c-2.9,0-28.5-0.5-38.8-18.8L1,6l3.4,2.3c0.2,0.1,15.9,10.3,37.5,10.3c0,0,0,0,0,0
				h0.2c21.6,0,37.3-10.2,37.5-10.3L83,6l-2,3.6C70.8,27.9,45.2,28.4,42.3,28.4z M42,26.4l0.3,0c2.6,0,24-0.4,34.7-14.3
				c-6,3.1-18.7,8.5-34.9,8.5h-0.2C25.7,20.6,13,15.2,7,12.1C17.8,26,39.1,26.4,41.7,26.4L42,26.4z"/>
		</g>
	</g>
</g>
</svg>
